G04 #@! TF.GenerationSoftware,KiCad,Pcbnew,9.0.1*
G04 #@! TF.CreationDate,2025-04-19T02:13:03+03:00*
G04 #@! TF.ProjectId,klor1_4,6b6c6f72-315f-4342-9e6b-696361645f70,v1.4.0*
G04 #@! TF.SameCoordinates,Original*
G04 #@! TF.FileFunction,Soldermask,Bot*
G04 #@! TF.FilePolarity,Negative*
%FSLAX46Y46*%
G04 Gerber Fmt 4.6, Leading zero omitted, Abs format (unit mm)*
G04 Created by KiCad (PCBNEW 9.0.1) date 2025-04-19 02:13:03*
%MOMM*%
%LPD*%
G01*
G04 APERTURE LIST*
G04 Aperture macros list*
%AMRoundRect*
0 Rectangle with rounded corners*
0 $1 Rounding radius*
0 $2 $3 $4 $5 $6 $7 $8 $9 X,Y pos of 4 corners*
0 Add a 4 corners polygon primitive as box body*
4,1,4,$2,$3,$4,$5,$6,$7,$8,$9,$2,$3,0*
0 Add four circle primitives for the rounded corners*
1,1,$1+$1,$2,$3*
1,1,$1+$1,$4,$5*
1,1,$1+$1,$6,$7*
1,1,$1+$1,$8,$9*
0 Add four rect primitives between the rounded corners*
20,1,$1+$1,$2,$3,$4,$5,0*
20,1,$1+$1,$4,$5,$6,$7,0*
20,1,$1+$1,$6,$7,$8,$9,0*
20,1,$1+$1,$8,$9,$2,$3,0*%
G04 Aperture macros list end*
%ADD10C,0.150000*%
%ADD11C,0.000001*%
%ADD12C,1.900000*%
%ADD13C,1.700000*%
%ADD14C,3.000000*%
%ADD15C,4.100000*%
%ADD16C,3.200000*%
%ADD17R,2.200000X2.200000*%
%ADD18C,2.200000*%
%ADD19C,2.000000*%
%ADD20R,3.200000X2.000000*%
%ADD21O,1.600000X2.000000*%
%ADD22C,1.200000*%
%ADD23O,2.500000X1.700000*%
%ADD24O,1.750000X1.200000*%
%ADD25C,0.900000*%
%ADD26RoundRect,0.187500X-0.712500X0.187500X-0.712500X-0.187500X0.712500X-0.187500X0.712500X0.187500X0*%
%ADD27RoundRect,0.150000X-0.750000X0.150000X-0.750000X-0.150000X0.750000X-0.150000X0.750000X0.150000X0*%
%ADD28RoundRect,0.225000X-0.225000X0.425000X-0.225000X-0.425000X0.225000X-0.425000X0.225000X0.425000X0*%
%ADD29C,4.400000*%
%ADD30RoundRect,0.142858X-0.857142X0.857142X-0.857142X-0.857142X0.857142X-0.857142X0.857142X0.857142X0*%
%ADD31R,1.000000X0.700000*%
%ADD32R,2.800000X1.000000*%
%ADD33R,1.524000X1.524000*%
%ADD34C,1.800000*%
%ADD35C,1.524000*%
%ADD36O,1.700000X1.700000*%
G04 APERTURE END LIST*
D10*
X107137343Y-43268863D02*
X107137303Y-43259705D01*
X107137183Y-43250556D01*
X107136984Y-43241417D01*
X107136705Y-43232288D01*
X107136346Y-43223169D01*
X107135907Y-43214061D01*
X107135390Y-43204965D01*
X107134792Y-43195880D01*
X107134116Y-43186807D01*
X107133361Y-43177746D01*
X107132526Y-43168698D01*
X107131612Y-43159663D01*
X107130619Y-43150642D01*
X107129548Y-43141634D01*
X107128398Y-43132641D01*
X107127169Y-43123662D01*
X107125861Y-43114699D01*
X107124475Y-43105751D01*
X107123011Y-43096818D01*
X107121468Y-43087903D01*
X107119847Y-43079003D01*
X107118148Y-43070122D01*
X107116372Y-43061258D01*
X107114517Y-43052412D01*
X107112584Y-43043584D01*
X107110574Y-43034776D01*
X107108487Y-43025988D01*
X107106322Y-43017219D01*
X107104080Y-43008471D01*
X107101760Y-42999744D01*
X107099364Y-42991038D01*
X107096891Y-42982355D01*
X107094341Y-42973694D01*
X107091715Y-42965056D01*
X107089012Y-42956442D01*
X107086233Y-42947852D01*
X107083379Y-42939286D01*
X107080448Y-42930746D01*
X107077442Y-42922231D01*
X107074360Y-42913743D01*
X107071203Y-42905281D01*
X107067970Y-42896847D01*
X107064663Y-42888441D01*
X107061281Y-42880064D01*
X107057825Y-42871715D01*
X107054295Y-42863396D01*
X107050690Y-42855108D01*
X107047012Y-42846850D01*
X107043260Y-42838623D01*
X107039435Y-42830429D01*
X107035537Y-42822267D01*
X107031567Y-42814139D01*
X107027523Y-42806044D01*
X107023408Y-42797984D01*
X107019221Y-42789959D01*
X107014962Y-42781969D01*
X107010632Y-42774016D01*
X107006231Y-42766100D01*
X107001759Y-42758221D01*
X106997218Y-42750380D01*
X106992606Y-42742578D01*
X106987924Y-42734815D01*
X106983173Y-42727093D01*
X106978354Y-42719411D01*
X106973466Y-42711770D01*
X106968509Y-42704171D01*
X106963485Y-42696615D01*
X106958394Y-42689101D01*
X106953236Y-42681632D01*
X106948011Y-42674207D01*
X106942720Y-42666827D01*
X106937363Y-42659492D01*
X106931941Y-42652204D01*
X106926455Y-42644963D01*
X106920904Y-42637769D01*
X106915289Y-42630623D01*
X106909611Y-42623526D01*
X106903869Y-42616478D01*
X106898066Y-42609481D01*
X106892200Y-42602534D01*
X106886273Y-42595638D01*
X106880285Y-42588794D01*
X106874236Y-42582002D01*
X106868128Y-42575263D01*
X106861960Y-42568578D01*
X106855733Y-42561947D01*
X106849448Y-42555371D01*
X106843105Y-42548850D01*
X106836705Y-42542385D01*
X106833483Y-42539173D01*
X106830248Y-42535976D01*
X106826998Y-42532793D01*
X106823735Y-42529624D01*
X106820457Y-42526470D01*
X106817166Y-42523330D01*
X106813861Y-42520205D01*
X106810543Y-42517094D01*
X106807211Y-42513998D01*
X106803865Y-42510917D01*
X106800506Y-42507851D01*
X106797133Y-42504799D01*
X106793747Y-42501762D01*
X106790348Y-42498741D01*
X106786936Y-42495734D01*
X106783510Y-42492742D01*
X106780072Y-42489766D01*
X106776621Y-42486805D01*
X106773157Y-42483859D01*
X106769680Y-42480929D01*
X106766190Y-42478014D01*
X106762688Y-42475115D01*
X106759173Y-42472231D01*
X106755645Y-42469363D01*
X106752106Y-42466510D01*
X106748553Y-42463673D01*
X106744989Y-42460853D01*
X106741412Y-42458047D01*
X106737824Y-42455258D01*
X106734223Y-42452485D01*
X106730611Y-42449728D01*
X106726986Y-42446987D01*
X106723350Y-42444263D01*
X106719702Y-42441554D01*
X106716042Y-42438862D01*
X106712371Y-42436185D01*
X106708689Y-42433526D01*
X106704994Y-42430883D01*
X106701289Y-42428256D01*
X106697572Y-42425646D01*
X106693845Y-42423053D01*
X106690105Y-42420476D01*
X106686356Y-42417916D01*
X106682594Y-42415372D01*
X106678823Y-42412846D01*
X106675040Y-42410336D01*
X106671247Y-42407843D01*
X106667443Y-42405367D01*
X106663629Y-42402909D01*
X106659804Y-42400467D01*
X106655969Y-42398043D01*
X106652123Y-42395635D01*
X106648268Y-42393245D01*
X106644402Y-42390871D01*
X106640526Y-42388516D01*
X106636640Y-42386177D01*
X106632744Y-42383857D01*
X106628838Y-42381553D01*
X106624923Y-42379267D01*
X106620997Y-42376998D01*
X106617063Y-42374748D01*
X106613118Y-42372514D01*
X106609165Y-42370299D01*
X106605202Y-42368100D01*
X106601230Y-42365920D01*
X106597248Y-42363758D01*
X106593258Y-42361613D01*
X106589257Y-42359486D01*
X106585249Y-42357377D01*
X106581231Y-42355286D01*
X106577205Y-42353213D01*
X106573169Y-42351158D01*
X106569126Y-42349121D01*
X106565072Y-42347102D01*
X106561012Y-42345102D01*
X106556942Y-42343118D01*
X106552865Y-42341154D01*
X106548778Y-42339208D01*
X106544684Y-42337280D01*
X106540581Y-42335370D01*
X106536471Y-42333479D01*
X106532352Y-42331606D01*
X106528226Y-42329751D01*
X106524091Y-42327915D01*
X106519950Y-42326097D01*
X106515799Y-42324298D01*
X106511642Y-42322517D01*
X106507477Y-42320755D01*
X106503305Y-42319011D01*
X106499124Y-42317286D01*
X106494938Y-42315580D01*
X106490743Y-42313892D01*
X106486542Y-42312223D01*
X106482332Y-42310572D01*
X106478117Y-42308941D01*
X106473894Y-42307328D01*
X106469665Y-42305734D01*
X106465427Y-42304158D01*
X106461185Y-42302602D01*
X106456934Y-42301064D01*
X106452679Y-42299546D01*
X106448414Y-42298046D01*
X106444146Y-42296565D01*
X106439869Y-42295103D01*
X106435588Y-42293661D01*
X106431298Y-42292237D01*
X106427004Y-42290832D01*
X106422702Y-42289446D01*
X106418396Y-42288080D01*
X106414082Y-42286732D01*
X106409764Y-42285404D01*
X106405438Y-42284094D01*
X106401108Y-42282804D01*
X106396771Y-42281533D01*
X106392430Y-42280281D01*
X106388081Y-42279049D01*
X106383729Y-42277836D01*
X106379369Y-42276641D01*
X106375006Y-42275467D01*
X106370635Y-42274311D01*
X106366261Y-42273175D01*
X106361880Y-42272058D01*
X106357496Y-42270961D01*
X106353104Y-42269882D01*
X106348710Y-42268824D01*
X106344309Y-42267784D01*
X106339905Y-42266764D01*
X106335493Y-42265763D01*
X106331079Y-42264782D01*
X106326658Y-42263821D01*
X106322235Y-42262879D01*
X106317805Y-42261956D01*
X106313373Y-42261053D01*
X106308933Y-42260169D01*
X106304492Y-42259305D01*
X106300044Y-42258460D01*
X106295594Y-42257635D01*
X106291137Y-42256829D01*
X106286678Y-42256044D01*
X106282213Y-42255277D01*
X106277746Y-42254531D01*
X106273273Y-42253803D01*
X106268798Y-42253096D01*
X106264316Y-42252408D01*
X106259834Y-42251740D01*
X106255345Y-42251092D01*
X106250854Y-42250463D01*
X106246358Y-42249854D01*
X106241860Y-42249265D01*
X106237356Y-42248695D01*
X106232851Y-42248145D01*
X106228340Y-42247615D01*
X106223828Y-42247104D01*
X106219310Y-42246614D01*
X106214791Y-42246143D01*
X106210266Y-42245692D01*
X106205741Y-42245260D01*
X106201210Y-42244849D01*
X106196678Y-42244457D01*
X106192140Y-42244085D01*
X106187602Y-42243733D01*
X106183058Y-42243401D01*
X106178514Y-42243089D01*
X106173965Y-42242796D01*
X106169415Y-42242524D01*
X106164860Y-42242271D01*
X106160304Y-42242038D01*
X106155743Y-42241825D01*
X106151182Y-42241633D01*
X106146616Y-42241460D01*
X106142049Y-42241307D01*
X106137478Y-42241173D01*
X106132907Y-42241060D01*
X106128330Y-42240967D01*
X106123754Y-42240894D01*
X106119172Y-42240841D01*
X106114591Y-42240807D01*
X106110005Y-42240794D01*
X106109274Y-42240794D01*
X109227749Y-44331201D02*
X109227749Y-42240795D01*
X103778985Y-43303132D02*
X103778985Y-42275064D01*
X106109274Y-42240794D02*
X106100116Y-42240834D01*
X106090967Y-42240954D01*
X106081828Y-42241153D01*
X106072699Y-42241432D01*
X106063580Y-42241791D01*
X106054473Y-42242230D01*
X106045376Y-42242747D01*
X106036291Y-42243345D01*
X106027218Y-42244021D01*
X106018158Y-42244777D01*
X106009110Y-42245611D01*
X106000075Y-42246525D01*
X105991053Y-42247518D01*
X105982046Y-42248589D01*
X105973052Y-42249739D01*
X105964074Y-42250968D01*
X105955110Y-42252276D01*
X105946162Y-42253662D01*
X105937230Y-42255126D01*
X105928314Y-42256669D01*
X105919415Y-42258290D01*
X105910533Y-42259989D01*
X105901669Y-42261765D01*
X105892823Y-42263620D01*
X105883996Y-42265553D01*
X105875188Y-42267563D01*
X105866399Y-42269650D01*
X105857630Y-42271815D01*
X105848882Y-42274057D01*
X105840155Y-42276377D01*
X105831450Y-42278773D01*
X105822766Y-42281246D01*
X105814105Y-42283796D01*
X105805468Y-42286422D01*
X105796853Y-42289125D01*
X105788263Y-42291904D01*
X105779698Y-42294758D01*
X105771157Y-42297689D01*
X105762643Y-42300695D01*
X105754154Y-42303777D01*
X105745693Y-42306934D01*
X105737259Y-42310167D01*
X105728853Y-42313474D01*
X105720475Y-42316856D01*
X105712126Y-42320312D01*
X105703808Y-42323842D01*
X105695519Y-42327447D01*
X105687261Y-42331125D01*
X105679035Y-42334877D01*
X105670841Y-42338702D01*
X105662679Y-42342600D01*
X105654550Y-42346571D01*
X105646456Y-42350614D01*
X105638396Y-42354729D01*
X105630370Y-42358916D01*
X105622381Y-42363175D01*
X105614428Y-42367505D01*
X105606511Y-42371906D01*
X105598632Y-42376378D01*
X105590792Y-42380920D01*
X105582990Y-42385531D01*
X105575227Y-42390213D01*
X105567504Y-42394964D01*
X105559822Y-42399783D01*
X105552182Y-42404671D01*
X105544583Y-42409628D01*
X105537026Y-42414652D01*
X105529513Y-42419743D01*
X105522043Y-42424901D01*
X105514618Y-42430126D01*
X105507238Y-42435417D01*
X105499904Y-42440774D01*
X105492616Y-42446196D01*
X105485374Y-42451682D01*
X105478180Y-42457233D01*
X105471035Y-42462848D01*
X105463938Y-42468527D01*
X105456890Y-42474268D01*
X105449893Y-42480072D01*
X105442945Y-42485937D01*
X105436050Y-42491864D01*
X105429205Y-42497852D01*
X105422414Y-42503901D01*
X105415675Y-42510010D01*
X105408990Y-42516177D01*
X105402359Y-42522404D01*
X105395783Y-42528689D01*
X105389262Y-42535032D01*
X105382796Y-42541433D01*
X105379585Y-42544654D01*
X105376388Y-42547889D01*
X105373205Y-42551139D01*
X105370036Y-42554402D01*
X105366882Y-42557680D01*
X105363742Y-42560971D01*
X105360617Y-42564276D01*
X105357506Y-42567594D01*
X105354410Y-42570927D01*
X105351329Y-42574272D01*
X105348262Y-42577631D01*
X105345211Y-42581004D01*
X105342174Y-42584390D01*
X105339152Y-42587789D01*
X105336146Y-42591201D01*
X105333154Y-42594627D01*
X105330178Y-42598065D01*
X105327217Y-42601517D01*
X105324271Y-42604981D01*
X105321341Y-42608458D01*
X105318426Y-42611947D01*
X105315526Y-42615450D01*
X105312643Y-42618964D01*
X105309774Y-42622492D01*
X105306922Y-42626031D01*
X105304085Y-42629584D01*
X105301264Y-42633148D01*
X105298459Y-42636725D01*
X105295670Y-42640313D01*
X105292897Y-42643914D01*
X105290140Y-42647526D01*
X105287399Y-42651151D01*
X105284674Y-42654787D01*
X105281965Y-42658436D01*
X105279273Y-42662095D01*
X105276597Y-42665766D01*
X105273938Y-42669449D01*
X105271294Y-42673143D01*
X105268668Y-42676848D01*
X105266058Y-42680565D01*
X105263464Y-42684293D01*
X105260887Y-42688032D01*
X105258328Y-42691782D01*
X105255784Y-42695543D01*
X105253258Y-42699314D01*
X105250748Y-42703097D01*
X105248255Y-42706890D01*
X105245779Y-42710694D01*
X105243321Y-42714508D01*
X105240879Y-42718333D01*
X105238454Y-42722168D01*
X105236047Y-42726014D01*
X105233657Y-42729869D01*
X105231283Y-42733736D01*
X105228928Y-42737611D01*
X105226589Y-42741498D01*
X105224269Y-42745393D01*
X105221965Y-42749299D01*
X105219679Y-42753214D01*
X105217410Y-42757140D01*
X105215160Y-42761074D01*
X105212926Y-42765019D01*
X105210711Y-42768972D01*
X105208512Y-42772936D01*
X105206332Y-42776907D01*
X105204169Y-42780890D01*
X105202025Y-42784880D01*
X105199898Y-42788880D01*
X105197789Y-42792888D01*
X105195698Y-42796907D01*
X105193625Y-42800932D01*
X105191570Y-42804968D01*
X105189533Y-42809012D01*
X105187514Y-42813065D01*
X105185513Y-42817125D01*
X105183530Y-42821195D01*
X105181566Y-42825272D01*
X105179620Y-42829359D01*
X105177692Y-42833453D01*
X105175782Y-42837556D01*
X105173891Y-42841666D01*
X105172017Y-42845786D01*
X105170163Y-42849911D01*
X105168327Y-42854046D01*
X105166509Y-42858188D01*
X105164709Y-42862338D01*
X105162929Y-42866495D01*
X105161166Y-42870661D01*
X105159423Y-42874832D01*
X105157698Y-42879013D01*
X105155992Y-42883199D01*
X105154304Y-42887395D01*
X105152635Y-42891595D01*
X105150984Y-42895805D01*
X105149353Y-42900020D01*
X105147740Y-42904244D01*
X105146146Y-42908472D01*
X105144570Y-42912710D01*
X105143014Y-42916952D01*
X105141476Y-42921203D01*
X105139958Y-42925459D01*
X105138458Y-42929723D01*
X105136977Y-42933991D01*
X105135515Y-42938269D01*
X105134073Y-42942550D01*
X105132648Y-42946840D01*
X105131244Y-42951133D01*
X105129858Y-42955435D01*
X105128492Y-42959741D01*
X105127144Y-42964056D01*
X105125816Y-42968374D01*
X105124506Y-42972699D01*
X105123216Y-42977029D01*
X105121945Y-42981367D01*
X105120693Y-42985708D01*
X105119460Y-42990057D01*
X105118247Y-42994409D01*
X105117053Y-42998769D01*
X105115879Y-43003132D01*
X105114723Y-43007502D01*
X105113587Y-43011876D01*
X105112470Y-43016257D01*
X105111372Y-43020641D01*
X105110294Y-43025033D01*
X105109235Y-43029427D01*
X105108196Y-43033829D01*
X105107176Y-43038233D01*
X105106175Y-43042644D01*
X105105194Y-43047058D01*
X105104232Y-43051479D01*
X105103291Y-43055902D01*
X105102368Y-43060332D01*
X105101465Y-43064765D01*
X105100581Y-43069204D01*
X105099717Y-43073646D01*
X105098872Y-43078094D01*
X105098047Y-43082544D01*
X105097241Y-43087001D01*
X105096456Y-43091459D01*
X105095689Y-43095924D01*
X105094943Y-43100391D01*
X105094215Y-43104865D01*
X105093508Y-43109340D01*
X105092820Y-43113821D01*
X105092152Y-43118304D01*
X105091504Y-43122793D01*
X105090875Y-43127283D01*
X105090266Y-43131780D01*
X105089676Y-43136278D01*
X105089107Y-43140782D01*
X105088557Y-43145287D01*
X105088027Y-43149798D01*
X105087516Y-43154310D01*
X105087025Y-43158828D01*
X105086555Y-43163347D01*
X105086104Y-43167871D01*
X105085672Y-43172397D01*
X105085261Y-43176928D01*
X105084869Y-43181460D01*
X105084497Y-43185997D01*
X105084145Y-43190535D01*
X105083813Y-43195079D01*
X105083501Y-43199623D01*
X105083208Y-43204173D01*
X105082936Y-43208723D01*
X105082683Y-43213278D01*
X105082450Y-43217833D01*
X105082237Y-43222394D01*
X105082045Y-43226955D01*
X105081872Y-43231522D01*
X105081719Y-43236088D01*
X105081585Y-43240659D01*
X105081472Y-43245231D01*
X105081379Y-43249807D01*
X105081306Y-43254384D01*
X105081253Y-43258965D01*
X105081219Y-43263546D01*
X105081206Y-43268132D01*
X105081206Y-43268863D01*
X104258752Y-43303132D02*
X103744717Y-44331201D01*
X104807053Y-43303132D02*
X104807053Y-44331201D01*
X105081206Y-43268863D02*
X105081206Y-43268863D01*
X103778985Y-42275064D02*
X104807053Y-42275064D01*
X107856991Y-44296932D02*
X107856991Y-42240795D01*
D11*
X158468562Y-117585385D02*
X158480532Y-117586297D01*
X158492309Y-117587798D01*
X158503880Y-117589872D01*
X158515231Y-117592504D01*
X158526349Y-117595678D01*
X158537221Y-117599379D01*
X158547832Y-117603592D01*
X158558170Y-117608300D01*
X158568220Y-117613489D01*
X158577969Y-117619143D01*
X158587404Y-117625247D01*
X158596511Y-117631784D01*
X158605276Y-117638740D01*
X158613686Y-117646098D01*
X158621727Y-117653844D01*
X158629386Y-117661962D01*
X158636649Y-117670437D01*
X158643503Y-117679252D01*
X158649934Y-117688393D01*
X158655928Y-117697843D01*
X158661472Y-117707589D01*
X158666553Y-117717613D01*
X158671156Y-117727900D01*
X158675268Y-117738436D01*
X158678876Y-117749204D01*
X158681967Y-117760189D01*
X158684525Y-117771375D01*
X158686539Y-117782747D01*
X158687994Y-117794290D01*
X158688878Y-117805988D01*
X158689175Y-117817825D01*
X158688878Y-117829973D01*
X158687994Y-117841942D01*
X158686539Y-117853718D01*
X158684525Y-117865288D01*
X158681967Y-117876639D01*
X158678876Y-117887757D01*
X158675268Y-117898628D01*
X158671156Y-117909238D01*
X158666553Y-117919575D01*
X158661472Y-117929625D01*
X158655928Y-117939374D01*
X158649934Y-117948808D01*
X158643503Y-117957914D01*
X158636649Y-117966679D01*
X158629386Y-117975088D01*
X158621727Y-117983129D01*
X158613686Y-117990788D01*
X158605276Y-117998050D01*
X158596511Y-118004904D01*
X158587404Y-118011334D01*
X158577969Y-118017328D01*
X158568220Y-118022872D01*
X158558170Y-118027952D01*
X158547832Y-118032555D01*
X158537221Y-118036667D01*
X158526349Y-118040275D01*
X158515231Y-118043365D01*
X158503880Y-118045924D01*
X158492309Y-118047937D01*
X158480532Y-118049393D01*
X158468562Y-118050276D01*
X158456414Y-118050573D01*
X158444266Y-118050276D01*
X158432296Y-118049393D01*
X158420519Y-118047937D01*
X158408949Y-118045924D01*
X158397597Y-118043365D01*
X158386479Y-118040275D01*
X158375607Y-118036667D01*
X158364996Y-118032555D01*
X158354658Y-118027952D01*
X158344608Y-118022872D01*
X158334859Y-118017328D01*
X158325424Y-118011334D01*
X158316317Y-118004904D01*
X158307552Y-117998050D01*
X158299142Y-117990788D01*
X158291101Y-117983129D01*
X158283442Y-117975088D01*
X158276179Y-117966679D01*
X158269325Y-117957914D01*
X158262894Y-117948808D01*
X158256900Y-117939374D01*
X158251356Y-117929625D01*
X158246276Y-117919575D01*
X158241672Y-117909238D01*
X158237560Y-117898628D01*
X158233952Y-117887757D01*
X158230861Y-117876639D01*
X158228303Y-117865288D01*
X158226289Y-117853718D01*
X158224834Y-117841942D01*
X158223950Y-117829973D01*
X158223653Y-117817825D01*
X158223950Y-117805678D01*
X158224834Y-117793709D01*
X158226289Y-117781933D01*
X158228303Y-117770363D01*
X158230861Y-117759012D01*
X158233952Y-117747894D01*
X158237560Y-117737023D01*
X158241672Y-117726412D01*
X158246276Y-117716075D01*
X158251356Y-117706026D01*
X158256900Y-117696277D01*
X158262894Y-117686843D01*
X158269325Y-117677737D01*
X158276179Y-117668972D01*
X158283442Y-117660563D01*
X158291101Y-117652522D01*
X158299142Y-117644863D01*
X158307552Y-117637600D01*
X158316317Y-117630747D01*
X158325424Y-117624317D01*
X158334859Y-117618323D01*
X158344608Y-117612779D01*
X158354658Y-117607699D01*
X158364996Y-117603096D01*
X158375607Y-117598984D01*
X158386479Y-117595376D01*
X158397597Y-117592286D01*
X158408949Y-117589727D01*
X158420519Y-117587713D01*
X158432296Y-117586258D01*
X158444266Y-117585375D01*
X158456414Y-117585078D01*
X158468562Y-117585385D01*
G36*
X158468562Y-117585385D02*
G01*
X158480532Y-117586297D01*
X158492309Y-117587798D01*
X158503880Y-117589872D01*
X158515231Y-117592504D01*
X158526349Y-117595678D01*
X158537221Y-117599379D01*
X158547832Y-117603592D01*
X158558170Y-117608300D01*
X158568220Y-117613489D01*
X158577969Y-117619143D01*
X158587404Y-117625247D01*
X158596511Y-117631784D01*
X158605276Y-117638740D01*
X158613686Y-117646098D01*
X158621727Y-117653844D01*
X158629386Y-117661962D01*
X158636649Y-117670437D01*
X158643503Y-117679252D01*
X158649934Y-117688393D01*
X158655928Y-117697843D01*
X158661472Y-117707589D01*
X158666553Y-117717613D01*
X158671156Y-117727900D01*
X158675268Y-117738436D01*
X158678876Y-117749204D01*
X158681967Y-117760189D01*
X158684525Y-117771375D01*
X158686539Y-117782747D01*
X158687994Y-117794290D01*
X158688878Y-117805988D01*
X158689175Y-117817825D01*
X158688878Y-117829973D01*
X158687994Y-117841942D01*
X158686539Y-117853718D01*
X158684525Y-117865288D01*
X158681967Y-117876639D01*
X158678876Y-117887757D01*
X158675268Y-117898628D01*
X158671156Y-117909238D01*
X158666553Y-117919575D01*
X158661472Y-117929625D01*
X158655928Y-117939374D01*
X158649934Y-117948808D01*
X158643503Y-117957914D01*
X158636649Y-117966679D01*
X158629386Y-117975088D01*
X158621727Y-117983129D01*
X158613686Y-117990788D01*
X158605276Y-117998050D01*
X158596511Y-118004904D01*
X158587404Y-118011334D01*
X158577969Y-118017328D01*
X158568220Y-118022872D01*
X158558170Y-118027952D01*
X158547832Y-118032555D01*
X158537221Y-118036667D01*
X158526349Y-118040275D01*
X158515231Y-118043365D01*
X158503880Y-118045924D01*
X158492309Y-118047937D01*
X158480532Y-118049393D01*
X158468562Y-118050276D01*
X158456414Y-118050573D01*
X158444266Y-118050276D01*
X158432296Y-118049393D01*
X158420519Y-118047937D01*
X158408949Y-118045924D01*
X158397597Y-118043365D01*
X158386479Y-118040275D01*
X158375607Y-118036667D01*
X158364996Y-118032555D01*
X158354658Y-118027952D01*
X158344608Y-118022872D01*
X158334859Y-118017328D01*
X158325424Y-118011334D01*
X158316317Y-118004904D01*
X158307552Y-117998050D01*
X158299142Y-117990788D01*
X158291101Y-117983129D01*
X158283442Y-117975088D01*
X158276179Y-117966679D01*
X158269325Y-117957914D01*
X158262894Y-117948808D01*
X158256900Y-117939374D01*
X158251356Y-117929625D01*
X158246276Y-117919575D01*
X158241672Y-117909238D01*
X158237560Y-117898628D01*
X158233952Y-117887757D01*
X158230861Y-117876639D01*
X158228303Y-117865288D01*
X158226289Y-117853718D01*
X158224834Y-117841942D01*
X158223950Y-117829973D01*
X158223653Y-117817825D01*
X158223950Y-117805678D01*
X158224834Y-117793709D01*
X158226289Y-117781933D01*
X158228303Y-117770363D01*
X158230861Y-117759012D01*
X158233952Y-117747894D01*
X158237560Y-117737023D01*
X158241672Y-117726412D01*
X158246276Y-117716075D01*
X158251356Y-117706026D01*
X158256900Y-117696277D01*
X158262894Y-117686843D01*
X158269325Y-117677737D01*
X158276179Y-117668972D01*
X158283442Y-117660563D01*
X158291101Y-117652522D01*
X158299142Y-117644863D01*
X158307552Y-117637600D01*
X158316317Y-117630747D01*
X158325424Y-117624317D01*
X158334859Y-117618323D01*
X158344608Y-117612779D01*
X158354658Y-117607699D01*
X158364996Y-117603096D01*
X158375607Y-117598984D01*
X158386479Y-117595376D01*
X158397597Y-117592286D01*
X158408949Y-117589727D01*
X158420519Y-117587713D01*
X158432296Y-117586258D01*
X158444266Y-117585375D01*
X158456414Y-117585078D01*
X158468562Y-117585385D01*
G37*
D10*
X105081206Y-43268863D02*
X105081246Y-43278021D01*
X105081366Y-43287170D01*
X105081565Y-43296309D01*
X105081844Y-43305438D01*
X105082203Y-43314557D01*
X105082642Y-43323664D01*
X105083159Y-43332761D01*
X105083757Y-43341846D01*
X105084433Y-43350919D01*
X105085189Y-43359979D01*
X105086023Y-43369027D01*
X105086937Y-43378062D01*
X105087930Y-43387084D01*
X105089001Y-43396091D01*
X105090151Y-43405085D01*
X105091380Y-43414063D01*
X105092688Y-43423027D01*
X105094074Y-43431975D01*
X105095538Y-43440907D01*
X105097081Y-43449823D01*
X105098702Y-43458722D01*
X105100401Y-43467604D01*
X105102177Y-43476468D01*
X105104032Y-43485314D01*
X105105965Y-43494141D01*
X105107975Y-43502950D01*
X105110062Y-43511738D01*
X105112227Y-43520507D01*
X105114469Y-43529255D01*
X105116789Y-43537982D01*
X105119185Y-43546687D01*
X105121658Y-43555371D01*
X105124208Y-43564032D01*
X105126834Y-43572670D01*
X105129537Y-43581284D01*
X105132316Y-43589874D01*
X105135170Y-43598439D01*
X105138101Y-43606980D01*
X105141107Y-43615494D01*
X105144189Y-43623983D01*
X105147347Y-43632444D01*
X105150579Y-43640878D01*
X105153886Y-43649284D01*
X105157268Y-43657662D01*
X105160724Y-43666011D01*
X105164254Y-43674329D01*
X105167859Y-43682618D01*
X105171537Y-43690876D01*
X105175289Y-43699102D01*
X105179114Y-43707296D01*
X105183012Y-43715458D01*
X105186983Y-43723587D01*
X105191026Y-43731681D01*
X105195141Y-43739741D01*
X105199328Y-43747767D01*
X105203587Y-43755756D01*
X105207917Y-43763709D01*
X105212318Y-43771626D01*
X105216790Y-43779505D01*
X105221332Y-43787345D01*
X105225943Y-43795148D01*
X105230625Y-43802910D01*
X105235376Y-43810633D01*
X105240195Y-43818315D01*
X105245083Y-43825956D01*
X105250040Y-43833554D01*
X105255064Y-43841111D01*
X105260155Y-43848624D01*
X105265313Y-43856094D01*
X105270538Y-43863519D01*
X105275829Y-43870899D01*
X105281186Y-43878233D01*
X105286608Y-43885522D01*
X105292094Y-43892763D01*
X105297645Y-43899957D01*
X105303260Y-43907102D01*
X105308939Y-43914199D01*
X105314680Y-43921247D01*
X105320484Y-43928245D01*
X105326349Y-43935192D01*
X105332276Y-43942088D01*
X105338265Y-43948932D01*
X105344313Y-43955723D01*
X105350422Y-43962462D01*
X105356590Y-43969147D01*
X105362816Y-43975778D01*
X105369101Y-43982355D01*
X105375444Y-43988876D01*
X105381845Y-43995341D01*
X105385066Y-43998552D01*
X105388301Y-44001749D01*
X105391551Y-44004932D01*
X105394814Y-44008101D01*
X105398092Y-44011255D01*
X105401383Y-44014395D01*
X105404688Y-44017520D01*
X105408006Y-44020631D01*
X105411339Y-44023727D01*
X105414684Y-44026808D01*
X105418043Y-44029875D01*
X105421416Y-44032927D01*
X105424802Y-44035963D01*
X105428201Y-44038985D01*
X105431613Y-44041991D01*
X105435039Y-44044983D01*
X105438477Y-44047959D01*
X105441929Y-44050920D01*
X105445393Y-44053866D01*
X105448870Y-44056796D01*
X105452359Y-44059711D01*
X105455862Y-44062611D01*
X105459376Y-44065494D01*
X105462904Y-44068363D01*
X105466443Y-44071215D01*
X105469996Y-44074052D01*
X105473560Y-44076873D01*
X105477137Y-44079678D01*
X105480725Y-44082467D01*
X105484326Y-44085240D01*
X105487938Y-44087997D01*
X105491563Y-44090738D01*
X105495199Y-44093463D01*
X105498848Y-44096172D01*
X105502507Y-44098864D01*
X105506178Y-44101540D01*
X105509861Y-44104199D01*
X105513555Y-44106843D01*
X105517260Y-44109469D01*
X105520977Y-44112079D01*
X105524705Y-44114673D01*
X105528444Y-44117250D01*
X105532193Y-44119810D01*
X105535955Y-44122353D01*
X105539726Y-44124880D01*
X105543509Y-44127390D01*
X105547302Y-44129882D01*
X105551106Y-44132358D01*
X105554920Y-44134817D01*
X105558745Y-44137259D01*
X105562580Y-44139683D01*
X105566426Y-44142091D01*
X105570281Y-44144481D01*
X105574148Y-44146854D01*
X105578023Y-44149209D01*
X105581910Y-44151548D01*
X105585805Y-44153869D01*
X105589711Y-44156172D01*
X105593626Y-44158458D01*
X105597552Y-44160727D01*
X105601486Y-44162978D01*
X105605431Y-44165211D01*
X105609384Y-44167427D01*
X105613348Y-44169625D01*
X105617319Y-44171805D01*
X105621302Y-44173968D01*
X105625292Y-44176112D01*
X105629292Y-44178239D01*
X105633300Y-44180348D01*
X105637319Y-44182439D01*
X105641344Y-44184512D01*
X105645380Y-44186567D01*
X105649424Y-44188604D01*
X105653477Y-44190623D01*
X105657537Y-44192624D01*
X105661607Y-44194607D01*
X105665684Y-44196571D01*
X105669771Y-44198518D01*
X105673865Y-44200445D01*
X105677968Y-44202355D01*
X105682078Y-44204246D01*
X105686197Y-44206120D01*
X105690323Y-44207974D01*
X105694458Y-44209811D01*
X105698600Y-44211628D01*
X105702750Y-44213428D01*
X105706907Y-44215208D01*
X105711073Y-44216971D01*
X105715244Y-44218714D01*
X105719425Y-44220439D01*
X105723611Y-44222145D01*
X105727807Y-44223834D01*
X105732007Y-44225502D01*
X105736217Y-44227153D01*
X105740432Y-44228784D01*
X105744656Y-44230398D01*
X105748884Y-44231991D01*
X105753122Y-44233567D01*
X105757364Y-44235123D01*
X105761615Y-44236661D01*
X105765871Y-44238179D01*
X105770135Y-44239679D01*
X105774403Y-44241160D01*
X105778680Y-44242622D01*
X105782962Y-44244064D01*
X105787251Y-44245489D01*
X105791545Y-44246893D01*
X105795847Y-44248279D01*
X105800153Y-44249646D01*
X105804467Y-44250993D01*
X105808785Y-44252322D01*
X105813111Y-44253631D01*
X105817441Y-44254921D01*
X105821778Y-44256192D01*
X105826119Y-44257444D01*
X105830468Y-44258677D01*
X105834821Y-44259890D01*
X105839180Y-44261084D01*
X105843543Y-44262259D01*
X105847914Y-44263414D01*
X105852288Y-44264550D01*
X105856669Y-44265667D01*
X105861053Y-44266765D01*
X105865445Y-44267843D01*
X105869839Y-44268902D01*
X105874240Y-44269941D01*
X105878645Y-44270961D01*
X105883056Y-44271962D01*
X105887470Y-44272943D01*
X105891891Y-44273905D01*
X105896314Y-44274847D01*
X105900744Y-44275770D01*
X105905177Y-44276672D01*
X105909616Y-44277556D01*
X105914057Y-44278420D01*
X105918505Y-44279265D01*
X105922956Y-44280090D01*
X105927412Y-44280896D01*
X105931871Y-44281681D01*
X105936336Y-44282448D01*
X105940803Y-44283194D01*
X105945276Y-44283922D01*
X105949751Y-44284629D01*
X105954233Y-44285317D01*
X105958715Y-44285985D01*
X105963205Y-44286634D01*
X105967695Y-44287262D01*
X105972192Y-44287871D01*
X105976689Y-44288461D01*
X105981193Y-44289030D01*
X105985698Y-44289580D01*
X105990209Y-44290110D01*
X105994721Y-44290621D01*
X105999239Y-44291112D01*
X106003758Y-44291582D01*
X106008283Y-44292034D01*
X106012808Y-44292465D01*
X106017340Y-44292876D01*
X106021871Y-44293268D01*
X106026409Y-44293640D01*
X106030947Y-44293992D01*
X106035491Y-44294324D01*
X106040035Y-44294636D01*
X106044584Y-44294929D01*
X106049134Y-44295201D01*
X106053689Y-44295454D01*
X106058245Y-44295687D01*
X106062806Y-44295900D01*
X106067367Y-44296092D01*
X106071933Y-44296265D01*
X106076499Y-44296418D01*
X106081071Y-44296552D01*
X106085642Y-44296665D01*
X106090219Y-44296758D01*
X106094795Y-44296831D01*
X106099377Y-44296884D01*
X106103958Y-44296918D01*
X106108544Y-44296931D01*
X106109274Y-44296931D01*
D11*
X159627273Y-117817825D02*
X159627273Y-118350324D01*
X159627273Y-118992143D01*
X157282029Y-118992143D01*
X157282029Y-118861663D01*
X157412516Y-118861663D01*
X157923885Y-118861663D01*
X157883349Y-118839726D01*
X157843763Y-118816260D01*
X157805170Y-118791306D01*
X157767609Y-118764906D01*
X157731123Y-118737100D01*
X157695753Y-118707931D01*
X157661540Y-118677439D01*
X157628526Y-118645667D01*
X157596751Y-118612654D01*
X157566258Y-118578443D01*
X157537087Y-118543075D01*
X157509280Y-118506591D01*
X157482878Y-118469033D01*
X157457922Y-118430441D01*
X157434455Y-118390858D01*
X157412516Y-118350324D01*
X157412516Y-118861663D01*
X157282029Y-118861663D01*
X157282029Y-117817825D01*
X157412516Y-117817825D01*
X157413879Y-117871393D01*
X157417924Y-117924275D01*
X157424585Y-117976404D01*
X157433794Y-118027713D01*
X157445485Y-118078136D01*
X157459592Y-118127607D01*
X157476048Y-118176059D01*
X157494787Y-118223426D01*
X157515742Y-118269640D01*
X157538847Y-118314636D01*
X157564036Y-118358347D01*
X157591241Y-118400707D01*
X157620396Y-118441649D01*
X157651434Y-118481106D01*
X157684290Y-118519012D01*
X157718897Y-118555301D01*
X157755187Y-118589905D01*
X157793096Y-118622759D01*
X157832555Y-118653796D01*
X157873499Y-118682949D01*
X157915861Y-118710153D01*
X157959575Y-118735340D01*
X158004573Y-118758443D01*
X158050791Y-118779397D01*
X158098160Y-118798135D01*
X158146614Y-118814591D01*
X158196088Y-118828697D01*
X158246514Y-118840387D01*
X158297827Y-118849596D01*
X158349958Y-118856256D01*
X158402843Y-118860300D01*
X158456414Y-118861663D01*
X158988943Y-118861663D01*
X159500312Y-118861663D01*
X159500312Y-118350324D01*
X159478374Y-118390858D01*
X159454906Y-118430441D01*
X159429951Y-118469033D01*
X159403549Y-118506591D01*
X159375742Y-118543075D01*
X159346571Y-118578443D01*
X159316077Y-118612654D01*
X159284303Y-118645667D01*
X159251288Y-118677439D01*
X159217076Y-118707931D01*
X159181705Y-118737100D01*
X159145219Y-118764906D01*
X159107659Y-118791306D01*
X159069065Y-118816260D01*
X159029480Y-118839726D01*
X158988943Y-118861663D01*
X158456414Y-118861663D01*
X158509985Y-118860300D01*
X158562870Y-118856256D01*
X158615001Y-118849596D01*
X158666314Y-118840387D01*
X158716740Y-118828697D01*
X158766214Y-118814591D01*
X158814668Y-118798135D01*
X158862038Y-118779397D01*
X158908255Y-118758443D01*
X158953254Y-118735340D01*
X158996967Y-118710153D01*
X159039329Y-118682949D01*
X159080273Y-118653796D01*
X159119733Y-118622759D01*
X159157641Y-118589905D01*
X159193932Y-118555301D01*
X159228538Y-118519012D01*
X159261394Y-118481106D01*
X159292433Y-118441649D01*
X159321588Y-118400707D01*
X159348793Y-118358347D01*
X159373981Y-118314636D01*
X159397086Y-118269640D01*
X159418041Y-118223426D01*
X159436780Y-118176059D01*
X159453237Y-118127607D01*
X159467344Y-118078136D01*
X159479035Y-118027713D01*
X159488244Y-117976404D01*
X159494904Y-117924275D01*
X159498949Y-117871393D01*
X159500312Y-117817825D01*
X159498949Y-117764257D01*
X159494904Y-117711376D01*
X159488244Y-117659247D01*
X159479035Y-117607938D01*
X159467344Y-117557515D01*
X159453237Y-117508044D01*
X159436780Y-117459592D01*
X159418041Y-117412225D01*
X159397086Y-117366011D01*
X159373981Y-117321014D01*
X159348793Y-117277303D01*
X159321588Y-117234944D01*
X159292433Y-117194002D01*
X159261394Y-117154545D01*
X159228538Y-117116639D01*
X159193932Y-117080350D01*
X159157641Y-117045746D01*
X159119733Y-117012892D01*
X159080273Y-116981855D01*
X159039329Y-116952701D01*
X158996967Y-116925498D01*
X158953254Y-116900311D01*
X158908255Y-116877208D01*
X158862038Y-116856254D01*
X158814668Y-116837516D01*
X158766214Y-116821060D01*
X158716740Y-116806954D01*
X158666314Y-116795263D01*
X158615001Y-116786055D01*
X158562870Y-116779395D01*
X158509985Y-116775350D01*
X158456414Y-116773987D01*
X158988943Y-116773987D01*
X159029480Y-116795925D01*
X159069065Y-116819391D01*
X159107659Y-116844345D01*
X159145219Y-116870745D01*
X159181705Y-116898550D01*
X159217076Y-116927720D01*
X159251288Y-116958211D01*
X159284303Y-116989984D01*
X159316077Y-117022997D01*
X159346571Y-117057208D01*
X159375742Y-117092576D01*
X159403549Y-117129060D01*
X159429951Y-117166618D01*
X159454906Y-117205210D01*
X159478374Y-117244793D01*
X159500312Y-117285327D01*
X159500312Y-116773987D01*
X158988943Y-116773987D01*
X158456414Y-116773987D01*
X158402843Y-116775350D01*
X158349958Y-116779395D01*
X158297827Y-116786055D01*
X158246514Y-116795263D01*
X158196088Y-116806954D01*
X158146614Y-116821060D01*
X158098160Y-116837516D01*
X158050791Y-116856254D01*
X158004573Y-116877208D01*
X157959575Y-116900311D01*
X157915861Y-116925498D01*
X157873499Y-116952701D01*
X157832555Y-116981855D01*
X157793096Y-117012892D01*
X157755187Y-117045746D01*
X157718897Y-117080350D01*
X157684290Y-117116639D01*
X157651434Y-117154545D01*
X157620396Y-117194002D01*
X157591241Y-117234944D01*
X157564036Y-117277303D01*
X157538847Y-117321014D01*
X157515742Y-117366011D01*
X157494787Y-117412225D01*
X157476048Y-117459592D01*
X157459592Y-117508044D01*
X157445485Y-117557515D01*
X157433794Y-117607938D01*
X157424585Y-117659247D01*
X157417924Y-117711376D01*
X157413879Y-117764257D01*
X157412516Y-117817825D01*
X157282029Y-117817825D01*
X157282029Y-117285327D01*
X157412516Y-117285327D01*
X157434455Y-117244793D01*
X157457922Y-117205210D01*
X157482878Y-117166618D01*
X157509280Y-117129060D01*
X157537087Y-117092576D01*
X157566258Y-117057208D01*
X157596751Y-117022997D01*
X157628526Y-116989984D01*
X157661540Y-116958211D01*
X157695753Y-116927720D01*
X157731123Y-116898550D01*
X157767609Y-116870745D01*
X157805170Y-116844345D01*
X157843763Y-116819391D01*
X157883349Y-116795925D01*
X157923885Y-116773987D01*
X157412516Y-116773987D01*
X157412516Y-117285327D01*
X157282029Y-117285327D01*
X157282029Y-116647034D01*
X159627273Y-116647034D01*
X159627273Y-117285327D01*
X159627273Y-117817825D01*
G36*
X159627273Y-117817825D02*
G01*
X159627273Y-118350324D01*
X159627273Y-118992143D01*
X157282029Y-118992143D01*
X157282029Y-118861663D01*
X157412516Y-118861663D01*
X157923885Y-118861663D01*
X157883349Y-118839726D01*
X157843763Y-118816260D01*
X157805170Y-118791306D01*
X157767609Y-118764906D01*
X157731123Y-118737100D01*
X157695753Y-118707931D01*
X157661540Y-118677439D01*
X157628526Y-118645667D01*
X157596751Y-118612654D01*
X157566258Y-118578443D01*
X157537087Y-118543075D01*
X157509280Y-118506591D01*
X157482878Y-118469033D01*
X157457922Y-118430441D01*
X157434455Y-118390858D01*
X157412516Y-118350324D01*
X157412516Y-118861663D01*
X157282029Y-118861663D01*
X157282029Y-117817825D01*
X157412516Y-117817825D01*
X157413879Y-117871393D01*
X157417924Y-117924275D01*
X157424585Y-117976404D01*
X157433794Y-118027713D01*
X157445485Y-118078136D01*
X157459592Y-118127607D01*
X157476048Y-118176059D01*
X157494787Y-118223426D01*
X157515742Y-118269640D01*
X157538847Y-118314636D01*
X157564036Y-118358347D01*
X157591241Y-118400707D01*
X157620396Y-118441649D01*
X157651434Y-118481106D01*
X157684290Y-118519012D01*
X157718897Y-118555301D01*
X157755187Y-118589905D01*
X157793096Y-118622759D01*
X157832555Y-118653796D01*
X157873499Y-118682949D01*
X157915861Y-118710153D01*
X157959575Y-118735340D01*
X158004573Y-118758443D01*
X158050791Y-118779397D01*
X158098160Y-118798135D01*
X158146614Y-118814591D01*
X158196088Y-118828697D01*
X158246514Y-118840387D01*
X158297827Y-118849596D01*
X158349958Y-118856256D01*
X158402843Y-118860300D01*
X158456414Y-118861663D01*
X158988943Y-118861663D01*
X159500312Y-118861663D01*
X159500312Y-118350324D01*
X159478374Y-118390858D01*
X159454906Y-118430441D01*
X159429951Y-118469033D01*
X159403549Y-118506591D01*
X159375742Y-118543075D01*
X159346571Y-118578443D01*
X159316077Y-118612654D01*
X159284303Y-118645667D01*
X159251288Y-118677439D01*
X159217076Y-118707931D01*
X159181705Y-118737100D01*
X159145219Y-118764906D01*
X159107659Y-118791306D01*
X159069065Y-118816260D01*
X159029480Y-118839726D01*
X158988943Y-118861663D01*
X158456414Y-118861663D01*
X158509985Y-118860300D01*
X158562870Y-118856256D01*
X158615001Y-118849596D01*
X158666314Y-118840387D01*
X158716740Y-118828697D01*
X158766214Y-118814591D01*
X158814668Y-118798135D01*
X158862038Y-118779397D01*
X158908255Y-118758443D01*
X158953254Y-118735340D01*
X158996967Y-118710153D01*
X159039329Y-118682949D01*
X159080273Y-118653796D01*
X159119733Y-118622759D01*
X159157641Y-118589905D01*
X159193932Y-118555301D01*
X159228538Y-118519012D01*
X159261394Y-118481106D01*
X159292433Y-118441649D01*
X159321588Y-118400707D01*
X159348793Y-118358347D01*
X159373981Y-118314636D01*
X159397086Y-118269640D01*
X159418041Y-118223426D01*
X159436780Y-118176059D01*
X159453237Y-118127607D01*
X159467344Y-118078136D01*
X159479035Y-118027713D01*
X159488244Y-117976404D01*
X159494904Y-117924275D01*
X159498949Y-117871393D01*
X159500312Y-117817825D01*
X159498949Y-117764257D01*
X159494904Y-117711376D01*
X159488244Y-117659247D01*
X159479035Y-117607938D01*
X159467344Y-117557515D01*
X159453237Y-117508044D01*
X159436780Y-117459592D01*
X159418041Y-117412225D01*
X159397086Y-117366011D01*
X159373981Y-117321014D01*
X159348793Y-117277303D01*
X159321588Y-117234944D01*
X159292433Y-117194002D01*
X159261394Y-117154545D01*
X159228538Y-117116639D01*
X159193932Y-117080350D01*
X159157641Y-117045746D01*
X159119733Y-117012892D01*
X159080273Y-116981855D01*
X159039329Y-116952701D01*
X158996967Y-116925498D01*
X158953254Y-116900311D01*
X158908255Y-116877208D01*
X158862038Y-116856254D01*
X158814668Y-116837516D01*
X158766214Y-116821060D01*
X158716740Y-116806954D01*
X158666314Y-116795263D01*
X158615001Y-116786055D01*
X158562870Y-116779395D01*
X158509985Y-116775350D01*
X158456414Y-116773987D01*
X158988943Y-116773987D01*
X159029480Y-116795925D01*
X159069065Y-116819391D01*
X159107659Y-116844345D01*
X159145219Y-116870745D01*
X159181705Y-116898550D01*
X159217076Y-116927720D01*
X159251288Y-116958211D01*
X159284303Y-116989984D01*
X159316077Y-117022997D01*
X159346571Y-117057208D01*
X159375742Y-117092576D01*
X159403549Y-117129060D01*
X159429951Y-117166618D01*
X159454906Y-117205210D01*
X159478374Y-117244793D01*
X159500312Y-117285327D01*
X159500312Y-116773987D01*
X158988943Y-116773987D01*
X158456414Y-116773987D01*
X158402843Y-116775350D01*
X158349958Y-116779395D01*
X158297827Y-116786055D01*
X158246514Y-116795263D01*
X158196088Y-116806954D01*
X158146614Y-116821060D01*
X158098160Y-116837516D01*
X158050791Y-116856254D01*
X158004573Y-116877208D01*
X157959575Y-116900311D01*
X157915861Y-116925498D01*
X157873499Y-116952701D01*
X157832555Y-116981855D01*
X157793096Y-117012892D01*
X157755187Y-117045746D01*
X157718897Y-117080350D01*
X157684290Y-117116639D01*
X157651434Y-117154545D01*
X157620396Y-117194002D01*
X157591241Y-117234944D01*
X157564036Y-117277303D01*
X157538847Y-117321014D01*
X157515742Y-117366011D01*
X157494787Y-117412225D01*
X157476048Y-117459592D01*
X157459592Y-117508044D01*
X157445485Y-117557515D01*
X157433794Y-117607938D01*
X157424585Y-117659247D01*
X157417924Y-117711376D01*
X157413879Y-117764257D01*
X157412516Y-117817825D01*
X157282029Y-117817825D01*
X157282029Y-117285327D01*
X157412516Y-117285327D01*
X157434455Y-117244793D01*
X157457922Y-117205210D01*
X157482878Y-117166618D01*
X157509280Y-117129060D01*
X157537087Y-117092576D01*
X157566258Y-117057208D01*
X157596751Y-117022997D01*
X157628526Y-116989984D01*
X157661540Y-116958211D01*
X157695753Y-116927720D01*
X157731123Y-116898550D01*
X157767609Y-116870745D01*
X157805170Y-116844345D01*
X157843763Y-116819391D01*
X157883349Y-116795925D01*
X157923885Y-116773987D01*
X157412516Y-116773987D01*
X157412516Y-117285327D01*
X157282029Y-117285327D01*
X157282029Y-116647034D01*
X159627273Y-116647034D01*
X159627273Y-117285327D01*
X159627273Y-117817825D01*
G37*
X157005507Y-114182081D02*
X157003421Y-114182025D01*
X157006949Y-114182025D01*
X157005507Y-114182081D01*
G36*
X157005507Y-114182081D02*
G01*
X157003421Y-114182025D01*
X157006949Y-114182025D01*
X157005507Y-114182081D01*
G37*
D10*
X106109274Y-44296931D02*
X106118432Y-44296891D01*
X106127581Y-44296771D01*
X106136720Y-44296572D01*
X106145849Y-44296293D01*
X106154968Y-44295934D01*
X106164076Y-44295495D01*
X106173172Y-44294978D01*
X106182257Y-44294380D01*
X106191330Y-44293704D01*
X106200391Y-44292949D01*
X106209439Y-44292114D01*
X106218474Y-44291200D01*
X106227495Y-44290207D01*
X106236503Y-44289136D01*
X106245496Y-44287986D01*
X106254475Y-44286757D01*
X106263438Y-44285449D01*
X106272386Y-44284063D01*
X106281319Y-44282599D01*
X106290235Y-44281056D01*
X106299134Y-44279435D01*
X106308015Y-44277736D01*
X106316879Y-44275960D01*
X106325725Y-44274105D01*
X106334553Y-44272172D01*
X106343361Y-44270162D01*
X106352149Y-44268075D01*
X106360918Y-44265910D01*
X106369666Y-44263668D01*
X106378393Y-44261348D01*
X106387099Y-44258952D01*
X106395782Y-44256479D01*
X106404443Y-44253929D01*
X106413081Y-44251303D01*
X106421695Y-44248600D01*
X106430285Y-44245821D01*
X106438851Y-44242967D01*
X106447391Y-44240036D01*
X106455906Y-44237030D01*
X106464394Y-44233948D01*
X106472856Y-44230791D01*
X106481290Y-44227558D01*
X106489696Y-44224251D01*
X106498074Y-44220869D01*
X106506422Y-44217413D01*
X106514741Y-44213883D01*
X106523030Y-44210278D01*
X106531287Y-44206600D01*
X106539514Y-44202848D01*
X106547708Y-44199023D01*
X106555870Y-44195125D01*
X106563998Y-44191155D01*
X106572093Y-44187111D01*
X106580153Y-44182996D01*
X106588178Y-44178809D01*
X106596168Y-44174550D01*
X106604121Y-44170220D01*
X106612037Y-44165819D01*
X106619916Y-44161347D01*
X106627757Y-44156806D01*
X106635559Y-44152194D01*
X106643322Y-44147512D01*
X106651044Y-44142761D01*
X106658726Y-44137942D01*
X106666367Y-44133054D01*
X106673966Y-44128097D01*
X106681523Y-44123073D01*
X106689036Y-44117982D01*
X106696505Y-44112824D01*
X106703930Y-44107599D01*
X106711311Y-44102308D01*
X106718645Y-44096951D01*
X106725933Y-44091529D01*
X106733175Y-44086043D01*
X106740368Y-44080492D01*
X106747514Y-44074877D01*
X106754611Y-44069199D01*
X106761659Y-44063457D01*
X106768656Y-44057654D01*
X106775603Y-44051788D01*
X106782499Y-44045861D01*
X106789343Y-44039873D01*
X106796135Y-44033824D01*
X106802874Y-44027716D01*
X106809559Y-44021548D01*
X106816190Y-44015321D01*
X106822766Y-44009036D01*
X106829287Y-44002693D01*
X106835752Y-43996293D01*
X106838964Y-43993071D01*
X106842161Y-43989836D01*
X106845344Y-43986586D01*
X106848513Y-43983323D01*
X106851667Y-43980045D01*
X106854807Y-43976754D01*
X106857932Y-43973449D01*
X106861043Y-43970131D01*
X106864139Y-43966799D01*
X106867220Y-43963453D01*
X106870287Y-43960094D01*
X106873338Y-43956721D01*
X106876375Y-43953335D01*
X106879397Y-43949936D01*
X106882403Y-43946524D01*
X106885395Y-43943098D01*
X106888371Y-43939660D01*
X106891332Y-43936209D01*
X106894278Y-43932745D01*
X106897208Y-43929268D01*
X106900123Y-43925778D01*
X106903023Y-43922276D01*
X106905906Y-43918761D01*
X106908775Y-43915233D01*
X106911627Y-43911694D01*
X106914464Y-43908141D01*
X106917285Y-43904577D01*
X106920090Y-43901000D01*
X106922879Y-43897412D01*
X106925652Y-43893811D01*
X106928409Y-43890199D01*
X106931150Y-43886574D01*
X106933875Y-43882938D01*
X106936584Y-43879290D01*
X106939276Y-43875630D01*
X106941952Y-43871959D01*
X106944611Y-43868277D01*
X106947255Y-43864582D01*
X106949881Y-43860877D01*
X106952491Y-43857160D01*
X106955084Y-43853433D01*
X106957662Y-43849693D01*
X106960221Y-43845944D01*
X106962765Y-43842182D01*
X106965291Y-43838411D01*
X106967801Y-43834628D01*
X106970294Y-43830835D01*
X106972770Y-43827031D01*
X106975228Y-43823217D01*
X106977670Y-43819392D01*
X106980095Y-43815557D01*
X106982502Y-43811711D01*
X106984892Y-43807856D01*
X106987266Y-43803990D01*
X106989621Y-43800114D01*
X106991960Y-43796228D01*
X106994280Y-43792332D01*
X106996584Y-43788426D01*
X106998870Y-43784511D01*
X107001139Y-43780585D01*
X107003389Y-43776651D01*
X107005623Y-43772706D01*
X107007838Y-43768753D01*
X107010037Y-43764790D01*
X107012217Y-43760818D01*
X107014380Y-43756836D01*
X107016524Y-43752846D01*
X107018651Y-43748845D01*
X107020760Y-43744837D01*
X107022851Y-43740819D01*
X107024924Y-43736793D01*
X107026979Y-43732757D01*
X107029016Y-43728714D01*
X107031035Y-43724660D01*
X107033036Y-43720600D01*
X107035019Y-43716530D01*
X107036983Y-43712453D01*
X107038929Y-43708366D01*
X107040857Y-43704272D01*
X107042767Y-43700169D01*
X107044658Y-43696059D01*
X107046532Y-43691940D01*
X107048386Y-43687814D01*
X107050222Y-43683679D01*
X107052040Y-43679538D01*
X107053839Y-43675387D01*
X107055620Y-43671231D01*
X107057383Y-43667065D01*
X107059126Y-43662893D01*
X107060851Y-43658712D01*
X107062557Y-43654526D01*
X107064245Y-43650331D01*
X107065914Y-43646130D01*
X107067565Y-43641920D01*
X107069196Y-43637705D01*
X107070809Y-43633482D01*
X107072403Y-43629253D01*
X107073979Y-43625016D01*
X107075535Y-43620773D01*
X107077073Y-43616522D01*
X107078591Y-43612267D01*
X107080091Y-43608003D01*
X107081572Y-43603734D01*
X107083034Y-43599457D01*
X107084476Y-43595176D01*
X107085901Y-43590886D01*
X107087305Y-43586592D01*
X107088691Y-43582290D01*
X107090057Y-43577984D01*
X107091405Y-43573670D01*
X107092733Y-43569352D01*
X107094043Y-43565026D01*
X107095333Y-43560696D01*
X107096604Y-43556359D01*
X107097856Y-43552018D01*
X107099089Y-43547669D01*
X107100302Y-43543317D01*
X107101496Y-43538957D01*
X107102670Y-43534594D01*
X107103826Y-43530223D01*
X107104962Y-43525850D01*
X107106079Y-43521468D01*
X107107177Y-43517084D01*
X107108255Y-43512693D01*
X107109314Y-43508298D01*
X107110353Y-43503897D01*
X107111373Y-43499493D01*
X107112374Y-43495081D01*
X107113355Y-43490668D01*
X107114317Y-43486247D01*
X107115258Y-43481823D01*
X107116181Y-43477393D01*
X107117084Y-43472961D01*
X107117968Y-43468522D01*
X107118832Y-43464080D01*
X107119677Y-43459632D01*
X107120502Y-43455182D01*
X107121308Y-43450725D01*
X107122093Y-43446266D01*
X107122860Y-43441801D01*
X107123606Y-43437334D01*
X107124334Y-43432861D01*
X107125041Y-43428386D01*
X107125729Y-43423905D01*
X107126397Y-43419422D01*
X107127045Y-43414933D01*
X107127674Y-43410442D01*
X107128283Y-43405946D01*
X107128873Y-43401448D01*
X107129442Y-43396944D01*
X107129992Y-43392439D01*
X107130522Y-43387928D01*
X107131033Y-43383416D01*
X107131524Y-43378898D01*
X107131994Y-43374379D01*
X107132445Y-43369855D01*
X107132877Y-43365329D01*
X107133288Y-43360798D01*
X107133680Y-43356266D01*
X107134052Y-43351729D01*
X107134404Y-43347191D01*
X107134736Y-43342647D01*
X107135048Y-43338103D01*
X107135341Y-43333553D01*
X107135613Y-43329003D01*
X107135866Y-43324448D01*
X107136099Y-43319892D01*
X107136312Y-43315332D01*
X107136504Y-43310771D01*
X107136677Y-43306204D01*
X107136830Y-43301638D01*
X107136964Y-43297067D01*
X107137077Y-43292495D01*
X107137170Y-43287919D01*
X107137243Y-43283342D01*
X107137296Y-43278761D01*
X107137330Y-43274180D01*
X107137343Y-43269594D01*
X107137343Y-43268863D01*
D11*
X162635532Y-117038473D02*
X162669701Y-117078220D01*
X162702078Y-117119403D01*
X162732605Y-117161971D01*
X162761225Y-117205871D01*
X162787883Y-117251052D01*
X162812521Y-117297463D01*
X162835082Y-117345051D01*
X162855509Y-117393766D01*
X162873746Y-117443555D01*
X162889736Y-117494367D01*
X162903422Y-117546150D01*
X162914746Y-117598853D01*
X162923653Y-117652424D01*
X162930086Y-117706810D01*
X162933987Y-117761961D01*
X162935300Y-117817825D01*
X162935300Y-117817826D01*
X162933987Y-117873728D01*
X162930086Y-117928985D01*
X162923653Y-117983530D01*
X162914746Y-118037294D01*
X162903422Y-118090211D01*
X162889736Y-118142213D01*
X162873746Y-118193235D01*
X162855509Y-118243207D01*
X162835082Y-118292064D01*
X162812521Y-118339738D01*
X162787883Y-118386161D01*
X162761225Y-118431268D01*
X162732605Y-118474990D01*
X162702078Y-118517260D01*
X162669701Y-118558012D01*
X162635532Y-118597178D01*
X162967040Y-118928666D01*
X162875347Y-119020355D01*
X162543839Y-118688866D01*
X162504089Y-118723033D01*
X162462904Y-118755408D01*
X162420334Y-118785933D01*
X162376431Y-118814552D01*
X162331248Y-118841208D01*
X162284834Y-118865844D01*
X162237243Y-118888404D01*
X162188525Y-118908830D01*
X162138733Y-118927066D01*
X162087919Y-118943055D01*
X162036132Y-118956740D01*
X161983427Y-118968064D01*
X161929853Y-118976971D01*
X161875463Y-118983403D01*
X161820309Y-118987304D01*
X161764442Y-118988617D01*
X161708536Y-118987304D01*
X161653276Y-118983403D01*
X161598728Y-118976971D01*
X161544961Y-118968064D01*
X161492041Y-118956740D01*
X161440035Y-118943055D01*
X161389011Y-118927066D01*
X161339036Y-118908830D01*
X161290176Y-118888404D01*
X161242500Y-118865845D01*
X161196074Y-118841208D01*
X161150965Y-118814552D01*
X161107240Y-118785933D01*
X161064967Y-118755408D01*
X161024213Y-118723033D01*
X160985045Y-118688866D01*
X160653537Y-119020355D01*
X160561843Y-118928666D01*
X160893352Y-118597178D01*
X161073212Y-118597178D01*
X161108290Y-118626841D01*
X161144710Y-118654965D01*
X161182412Y-118681498D01*
X161221333Y-118706388D01*
X161261411Y-118729584D01*
X161302584Y-118751034D01*
X161344791Y-118770686D01*
X161387969Y-118788489D01*
X161432056Y-118804391D01*
X161476990Y-118818340D01*
X161522709Y-118830285D01*
X161569152Y-118840174D01*
X161616256Y-118847956D01*
X161663959Y-118853578D01*
X161712199Y-118856989D01*
X161760915Y-118858137D01*
X161764442Y-118858137D01*
X161813739Y-118856989D01*
X161862411Y-118853578D01*
X161910411Y-118847956D01*
X161957693Y-118840174D01*
X162004211Y-118830285D01*
X162049917Y-118818340D01*
X162094766Y-118804391D01*
X162138711Y-118788489D01*
X162181705Y-118770686D01*
X162223703Y-118751034D01*
X162264656Y-118729584D01*
X162304520Y-118706388D01*
X162343247Y-118681498D01*
X162380792Y-118654965D01*
X162417106Y-118626841D01*
X162452145Y-118597178D01*
X161764442Y-117909514D01*
X161073212Y-118597178D01*
X160893352Y-118597178D01*
X160859183Y-118557431D01*
X160826806Y-118516248D01*
X160796279Y-118473680D01*
X160767658Y-118429780D01*
X160741001Y-118384599D01*
X160716363Y-118338188D01*
X160693802Y-118290599D01*
X160673375Y-118241885D01*
X160655138Y-118192095D01*
X160639148Y-118141283D01*
X160625462Y-118089500D01*
X160614138Y-118036798D01*
X160605230Y-117983227D01*
X160598798Y-117928841D01*
X160594897Y-117873689D01*
X160593584Y-117817825D01*
X160593750Y-117810773D01*
X160720544Y-117810773D01*
X160720544Y-117814299D01*
X160721693Y-117863594D01*
X160725104Y-117912269D01*
X160730726Y-117960283D01*
X160738508Y-118007594D01*
X160748398Y-118054162D01*
X160760343Y-118099944D01*
X160774293Y-118144900D01*
X160790196Y-118188988D01*
X160808000Y-118232166D01*
X160827653Y-118274395D01*
X160849104Y-118315631D01*
X160872301Y-118355834D01*
X160897193Y-118394963D01*
X160923728Y-118432976D01*
X160951853Y-118469832D01*
X160981518Y-118505489D01*
X161669221Y-117817826D01*
X161856135Y-117817826D01*
X162543839Y-118505489D01*
X162573504Y-118470414D01*
X162601629Y-118433995D01*
X162628164Y-118396296D01*
X162653056Y-118357377D01*
X162676253Y-118317301D01*
X162697704Y-118276130D01*
X162717357Y-118233926D01*
X162735161Y-118190751D01*
X162751064Y-118146666D01*
X162765014Y-118101735D01*
X162776959Y-118056018D01*
X162786849Y-118009578D01*
X162794631Y-117962477D01*
X162800253Y-117914776D01*
X162803664Y-117866539D01*
X162804813Y-117817826D01*
X162803664Y-117769113D01*
X162800253Y-117720875D01*
X162794631Y-117673175D01*
X162786849Y-117626073D01*
X162776959Y-117579633D01*
X162765014Y-117533917D01*
X162751064Y-117488985D01*
X162735161Y-117444900D01*
X162717357Y-117401725D01*
X162697704Y-117359521D01*
X162676253Y-117318350D01*
X162653056Y-117278274D01*
X162628164Y-117239356D01*
X162601629Y-117201656D01*
X162573504Y-117165237D01*
X162543839Y-117130162D01*
X161859662Y-117814299D01*
X161856135Y-117817826D01*
X161669221Y-117817826D01*
X161672748Y-117814299D01*
X160981518Y-117123109D01*
X160951853Y-117158184D01*
X160923728Y-117194603D01*
X160897193Y-117232303D01*
X160872301Y-117271221D01*
X160849104Y-117311297D01*
X160827653Y-117352468D01*
X160808000Y-117394672D01*
X160790196Y-117437848D01*
X160774293Y-117481932D01*
X160760343Y-117526864D01*
X160748398Y-117572580D01*
X160738508Y-117619020D01*
X160730726Y-117666122D01*
X160725104Y-117713822D01*
X160721693Y-117762060D01*
X160720544Y-117810773D01*
X160593750Y-117810773D01*
X160594897Y-117761923D01*
X160598798Y-117706666D01*
X160605230Y-117652121D01*
X160614138Y-117598357D01*
X160625462Y-117545440D01*
X160639148Y-117493437D01*
X160655138Y-117442416D01*
X160673375Y-117392444D01*
X160693802Y-117343587D01*
X160716363Y-117295913D01*
X160741001Y-117249490D01*
X160767658Y-117204383D01*
X160796279Y-117160661D01*
X160826806Y-117118391D01*
X160859183Y-117077639D01*
X160893352Y-117038473D01*
X160889826Y-117034947D01*
X161076739Y-117034947D01*
X161767969Y-117722610D01*
X162455672Y-117034947D01*
X162420593Y-117005283D01*
X162384167Y-116977159D01*
X162346449Y-116950626D01*
X162307496Y-116925736D01*
X162267365Y-116902540D01*
X162226114Y-116881090D01*
X162183798Y-116861438D01*
X162140474Y-116843635D01*
X162096201Y-116827733D01*
X162051033Y-116813784D01*
X162005029Y-116801839D01*
X161958244Y-116791950D01*
X161910736Y-116784169D01*
X161862562Y-116778547D01*
X161813779Y-116775136D01*
X161764442Y-116773987D01*
X161715145Y-116775136D01*
X161666473Y-116778547D01*
X161618473Y-116784169D01*
X161571191Y-116791950D01*
X161524673Y-116801839D01*
X161478967Y-116813784D01*
X161434118Y-116827733D01*
X161390173Y-116843635D01*
X161347178Y-116861438D01*
X161305181Y-116881090D01*
X161264227Y-116902540D01*
X161224364Y-116925736D01*
X161185636Y-116950626D01*
X161148092Y-116977159D01*
X161111778Y-117005283D01*
X161076739Y-117034947D01*
X160889826Y-117034947D01*
X160561843Y-116706984D01*
X160653537Y-116615296D01*
X160985045Y-116946785D01*
X161024794Y-116912618D01*
X161065980Y-116880243D01*
X161108550Y-116849718D01*
X161152452Y-116821099D01*
X161197636Y-116794443D01*
X161244050Y-116769806D01*
X161291641Y-116747247D01*
X161340358Y-116726821D01*
X161390150Y-116708585D01*
X161440965Y-116692596D01*
X161492751Y-116678911D01*
X161545457Y-116667587D01*
X161599031Y-116658680D01*
X161653420Y-116652248D01*
X161708575Y-116648347D01*
X161764442Y-116647034D01*
X161820348Y-116648347D01*
X161875608Y-116652248D01*
X161930155Y-116658680D01*
X161983923Y-116667587D01*
X162036843Y-116678911D01*
X162088848Y-116692596D01*
X162139872Y-116708584D01*
X162189848Y-116726820D01*
X162238707Y-116747247D01*
X162286384Y-116769806D01*
X162332810Y-116794443D01*
X162377919Y-116821099D01*
X162421644Y-116849718D01*
X162463917Y-116880243D01*
X162504671Y-116912618D01*
X162543839Y-116946785D01*
X162875347Y-116615296D01*
X162967040Y-116706984D01*
X162639059Y-117034947D01*
X162635532Y-117038473D01*
G36*
X162635532Y-117038473D02*
G01*
X162669701Y-117078220D01*
X162702078Y-117119403D01*
X162732605Y-117161971D01*
X162761225Y-117205871D01*
X162787883Y-117251052D01*
X162812521Y-117297463D01*
X162835082Y-117345051D01*
X162855509Y-117393766D01*
X162873746Y-117443555D01*
X162889736Y-117494367D01*
X162903422Y-117546150D01*
X162914746Y-117598853D01*
X162923653Y-117652424D01*
X162930086Y-117706810D01*
X162933987Y-117761961D01*
X162935300Y-117817825D01*
X162935300Y-117817826D01*
X162933987Y-117873728D01*
X162930086Y-117928985D01*
X162923653Y-117983530D01*
X162914746Y-118037294D01*
X162903422Y-118090211D01*
X162889736Y-118142213D01*
X162873746Y-118193235D01*
X162855509Y-118243207D01*
X162835082Y-118292064D01*
X162812521Y-118339738D01*
X162787883Y-118386161D01*
X162761225Y-118431268D01*
X162732605Y-118474990D01*
X162702078Y-118517260D01*
X162669701Y-118558012D01*
X162635532Y-118597178D01*
X162967040Y-118928666D01*
X162875347Y-119020355D01*
X162543839Y-118688866D01*
X162504089Y-118723033D01*
X162462904Y-118755408D01*
X162420334Y-118785933D01*
X162376431Y-118814552D01*
X162331248Y-118841208D01*
X162284834Y-118865844D01*
X162237243Y-118888404D01*
X162188525Y-118908830D01*
X162138733Y-118927066D01*
X162087919Y-118943055D01*
X162036132Y-118956740D01*
X161983427Y-118968064D01*
X161929853Y-118976971D01*
X161875463Y-118983403D01*
X161820309Y-118987304D01*
X161764442Y-118988617D01*
X161708536Y-118987304D01*
X161653276Y-118983403D01*
X161598728Y-118976971D01*
X161544961Y-118968064D01*
X161492041Y-118956740D01*
X161440035Y-118943055D01*
X161389011Y-118927066D01*
X161339036Y-118908830D01*
X161290176Y-118888404D01*
X161242500Y-118865845D01*
X161196074Y-118841208D01*
X161150965Y-118814552D01*
X161107240Y-118785933D01*
X161064967Y-118755408D01*
X161024213Y-118723033D01*
X160985045Y-118688866D01*
X160653537Y-119020355D01*
X160561843Y-118928666D01*
X160893352Y-118597178D01*
X161073212Y-118597178D01*
X161108290Y-118626841D01*
X161144710Y-118654965D01*
X161182412Y-118681498D01*
X161221333Y-118706388D01*
X161261411Y-118729584D01*
X161302584Y-118751034D01*
X161344791Y-118770686D01*
X161387969Y-118788489D01*
X161432056Y-118804391D01*
X161476990Y-118818340D01*
X161522709Y-118830285D01*
X161569152Y-118840174D01*
X161616256Y-118847956D01*
X161663959Y-118853578D01*
X161712199Y-118856989D01*
X161760915Y-118858137D01*
X161764442Y-118858137D01*
X161813739Y-118856989D01*
X161862411Y-118853578D01*
X161910411Y-118847956D01*
X161957693Y-118840174D01*
X162004211Y-118830285D01*
X162049917Y-118818340D01*
X162094766Y-118804391D01*
X162138711Y-118788489D01*
X162181705Y-118770686D01*
X162223703Y-118751034D01*
X162264656Y-118729584D01*
X162304520Y-118706388D01*
X162343247Y-118681498D01*
X162380792Y-118654965D01*
X162417106Y-118626841D01*
X162452145Y-118597178D01*
X161764442Y-117909514D01*
X161073212Y-118597178D01*
X160893352Y-118597178D01*
X160859183Y-118557431D01*
X160826806Y-118516248D01*
X160796279Y-118473680D01*
X160767658Y-118429780D01*
X160741001Y-118384599D01*
X160716363Y-118338188D01*
X160693802Y-118290599D01*
X160673375Y-118241885D01*
X160655138Y-118192095D01*
X160639148Y-118141283D01*
X160625462Y-118089500D01*
X160614138Y-118036798D01*
X160605230Y-117983227D01*
X160598798Y-117928841D01*
X160594897Y-117873689D01*
X160593584Y-117817825D01*
X160593750Y-117810773D01*
X160720544Y-117810773D01*
X160720544Y-117814299D01*
X160721693Y-117863594D01*
X160725104Y-117912269D01*
X160730726Y-117960283D01*
X160738508Y-118007594D01*
X160748398Y-118054162D01*
X160760343Y-118099944D01*
X160774293Y-118144900D01*
X160790196Y-118188988D01*
X160808000Y-118232166D01*
X160827653Y-118274395D01*
X160849104Y-118315631D01*
X160872301Y-118355834D01*
X160897193Y-118394963D01*
X160923728Y-118432976D01*
X160951853Y-118469832D01*
X160981518Y-118505489D01*
X161669221Y-117817826D01*
X161856135Y-117817826D01*
X162543839Y-118505489D01*
X162573504Y-118470414D01*
X162601629Y-118433995D01*
X162628164Y-118396296D01*
X162653056Y-118357377D01*
X162676253Y-118317301D01*
X162697704Y-118276130D01*
X162717357Y-118233926D01*
X162735161Y-118190751D01*
X162751064Y-118146666D01*
X162765014Y-118101735D01*
X162776959Y-118056018D01*
X162786849Y-118009578D01*
X162794631Y-117962477D01*
X162800253Y-117914776D01*
X162803664Y-117866539D01*
X162804813Y-117817826D01*
X162803664Y-117769113D01*
X162800253Y-117720875D01*
X162794631Y-117673175D01*
X162786849Y-117626073D01*
X162776959Y-117579633D01*
X162765014Y-117533917D01*
X162751064Y-117488985D01*
X162735161Y-117444900D01*
X162717357Y-117401725D01*
X162697704Y-117359521D01*
X162676253Y-117318350D01*
X162653056Y-117278274D01*
X162628164Y-117239356D01*
X162601629Y-117201656D01*
X162573504Y-117165237D01*
X162543839Y-117130162D01*
X161859662Y-117814299D01*
X161856135Y-117817826D01*
X161669221Y-117817826D01*
X161672748Y-117814299D01*
X160981518Y-117123109D01*
X160951853Y-117158184D01*
X160923728Y-117194603D01*
X160897193Y-117232303D01*
X160872301Y-117271221D01*
X160849104Y-117311297D01*
X160827653Y-117352468D01*
X160808000Y-117394672D01*
X160790196Y-117437848D01*
X160774293Y-117481932D01*
X160760343Y-117526864D01*
X160748398Y-117572580D01*
X160738508Y-117619020D01*
X160730726Y-117666122D01*
X160725104Y-117713822D01*
X160721693Y-117762060D01*
X160720544Y-117810773D01*
X160593750Y-117810773D01*
X160594897Y-117761923D01*
X160598798Y-117706666D01*
X160605230Y-117652121D01*
X160614138Y-117598357D01*
X160625462Y-117545440D01*
X160639148Y-117493437D01*
X160655138Y-117442416D01*
X160673375Y-117392444D01*
X160693802Y-117343587D01*
X160716363Y-117295913D01*
X160741001Y-117249490D01*
X160767658Y-117204383D01*
X160796279Y-117160661D01*
X160826806Y-117118391D01*
X160859183Y-117077639D01*
X160893352Y-117038473D01*
X160889826Y-117034947D01*
X161076739Y-117034947D01*
X161767969Y-117722610D01*
X162455672Y-117034947D01*
X162420593Y-117005283D01*
X162384167Y-116977159D01*
X162346449Y-116950626D01*
X162307496Y-116925736D01*
X162267365Y-116902540D01*
X162226114Y-116881090D01*
X162183798Y-116861438D01*
X162140474Y-116843635D01*
X162096201Y-116827733D01*
X162051033Y-116813784D01*
X162005029Y-116801839D01*
X161958244Y-116791950D01*
X161910736Y-116784169D01*
X161862562Y-116778547D01*
X161813779Y-116775136D01*
X161764442Y-116773987D01*
X161715145Y-116775136D01*
X161666473Y-116778547D01*
X161618473Y-116784169D01*
X161571191Y-116791950D01*
X161524673Y-116801839D01*
X161478967Y-116813784D01*
X161434118Y-116827733D01*
X161390173Y-116843635D01*
X161347178Y-116861438D01*
X161305181Y-116881090D01*
X161264227Y-116902540D01*
X161224364Y-116925736D01*
X161185636Y-116950626D01*
X161148092Y-116977159D01*
X161111778Y-117005283D01*
X161076739Y-117034947D01*
X160889826Y-117034947D01*
X160561843Y-116706984D01*
X160653537Y-116615296D01*
X160985045Y-116946785D01*
X161024794Y-116912618D01*
X161065980Y-116880243D01*
X161108550Y-116849718D01*
X161152452Y-116821099D01*
X161197636Y-116794443D01*
X161244050Y-116769806D01*
X161291641Y-116747247D01*
X161340358Y-116726821D01*
X161390150Y-116708585D01*
X161440965Y-116692596D01*
X161492751Y-116678911D01*
X161545457Y-116667587D01*
X161599031Y-116658680D01*
X161653420Y-116652248D01*
X161708575Y-116648347D01*
X161764442Y-116647034D01*
X161820348Y-116648347D01*
X161875608Y-116652248D01*
X161930155Y-116658680D01*
X161983923Y-116667587D01*
X162036843Y-116678911D01*
X162088848Y-116692596D01*
X162139872Y-116708584D01*
X162189848Y-116726820D01*
X162238707Y-116747247D01*
X162286384Y-116769806D01*
X162332810Y-116794443D01*
X162377919Y-116821099D01*
X162421644Y-116849718D01*
X162463917Y-116880243D01*
X162504671Y-116912618D01*
X162543839Y-116946785D01*
X162875347Y-116615296D01*
X162967040Y-116706984D01*
X162639059Y-117034947D01*
X162635532Y-117038473D01*
G37*
X162145324Y-114457090D02*
X162191603Y-114465399D01*
X162237171Y-114475745D01*
X162281979Y-114488081D01*
X162325976Y-114502356D01*
X162369114Y-114518522D01*
X162411341Y-114536529D01*
X162452609Y-114556329D01*
X162484630Y-114573464D01*
X162492867Y-114577872D01*
X162532066Y-114601110D01*
X162570157Y-114625993D01*
X162607089Y-114652472D01*
X162642813Y-114680498D01*
X162677279Y-114710023D01*
X162710437Y-114740996D01*
X162742238Y-114773369D01*
X162772632Y-114807093D01*
X162801569Y-114842119D01*
X162829000Y-114878398D01*
X162854874Y-114915880D01*
X162879142Y-114954517D01*
X162901754Y-114994259D01*
X162922662Y-115035058D01*
X162941813Y-115076864D01*
X162959160Y-115119628D01*
X162974653Y-115163301D01*
X162988241Y-115207834D01*
X162999875Y-115253179D01*
X163009505Y-115299285D01*
X163017082Y-115346105D01*
X163022556Y-115393588D01*
X163024853Y-115426872D01*
X163025876Y-115441685D01*
X163026994Y-115490349D01*
X163026994Y-115553825D01*
X162667272Y-115553825D01*
X162970567Y-115857103D01*
X162878873Y-115948791D01*
X162483885Y-115553825D01*
X161796182Y-115553825D01*
X161796182Y-115423346D01*
X162353398Y-115423346D01*
X161764442Y-114834424D01*
X161175486Y-115423346D01*
X161789129Y-115423346D01*
X161789129Y-115553825D01*
X161044999Y-115553825D01*
X160650010Y-115948791D01*
X160558317Y-115857103D01*
X160861611Y-115553825D01*
X160579477Y-115553825D01*
X160579477Y-114573464D01*
X160709964Y-114573464D01*
X160709964Y-115423346D01*
X160992099Y-115423346D01*
X161665713Y-114746262D01*
X161859662Y-114746262D01*
X162540312Y-115426872D01*
X162896507Y-115426872D01*
X162896507Y-115423346D01*
X162892537Y-115380643D01*
X162886609Y-115338524D01*
X162878769Y-115297036D01*
X162869065Y-115256224D01*
X162857542Y-115216135D01*
X162844247Y-115176816D01*
X162829227Y-115138313D01*
X162812528Y-115100673D01*
X162794196Y-115063942D01*
X162774278Y-115028166D01*
X162752821Y-114993393D01*
X162729871Y-114959669D01*
X162705474Y-114927039D01*
X162679678Y-114895552D01*
X162652528Y-114865252D01*
X162624071Y-114836187D01*
X162594353Y-114808403D01*
X162563421Y-114781947D01*
X162531322Y-114756864D01*
X162498102Y-114733203D01*
X162463807Y-114711008D01*
X162428484Y-114690327D01*
X162392180Y-114671206D01*
X162354941Y-114653691D01*
X162316813Y-114637830D01*
X162277843Y-114623668D01*
X162238077Y-114611252D01*
X162197563Y-114600629D01*
X162156345Y-114591845D01*
X162114472Y-114584946D01*
X162071989Y-114579979D01*
X162028943Y-114576990D01*
X161863189Y-114742735D01*
X161859662Y-114746262D01*
X161665713Y-114746262D01*
X161669222Y-114742735D01*
X161499940Y-114573464D01*
X161683328Y-114573464D01*
X161764442Y-114654573D01*
X161845556Y-114573464D01*
X161683328Y-114573464D01*
X161499940Y-114573464D01*
X160709964Y-114573464D01*
X160579477Y-114573464D01*
X160579477Y-114182025D01*
X160713491Y-114182025D01*
X160713491Y-114446511D01*
X161372980Y-114446511D01*
X160854558Y-113928118D01*
X160839025Y-113938486D01*
X160824196Y-113949732D01*
X160810109Y-113961825D01*
X160796809Y-113974734D01*
X160784334Y-113988428D01*
X160772728Y-114002877D01*
X160767263Y-114010374D01*
X160762031Y-114018049D01*
X160757036Y-114025896D01*
X160752284Y-114033913D01*
X160747780Y-114042095D01*
X160743530Y-114050438D01*
X160739537Y-114058939D01*
X160735808Y-114067593D01*
X160732348Y-114076398D01*
X160729161Y-114085348D01*
X160726253Y-114094440D01*
X160723630Y-114103671D01*
X160721296Y-114113036D01*
X160719256Y-114122531D01*
X160717516Y-114132153D01*
X160716081Y-114141897D01*
X160714955Y-114151761D01*
X160714145Y-114161739D01*
X160713655Y-114171828D01*
X160713491Y-114182025D01*
X160579477Y-114182025D01*
X160579477Y-114178498D01*
X160580295Y-114152224D01*
X160582721Y-114126331D01*
X160586706Y-114100873D01*
X160592206Y-114075900D01*
X160599172Y-114051464D01*
X160607559Y-114027617D01*
X160617320Y-114004411D01*
X160628409Y-113981897D01*
X160640779Y-113960127D01*
X160654384Y-113939152D01*
X160669177Y-113919025D01*
X160685112Y-113899796D01*
X160702142Y-113881518D01*
X160720220Y-113864242D01*
X160739301Y-113848020D01*
X160759337Y-113832903D01*
X160561843Y-113635420D01*
X160653537Y-113543732D01*
X160882771Y-113772953D01*
X160890086Y-113770391D01*
X160897484Y-113767994D01*
X160904965Y-113765762D01*
X160912528Y-113763696D01*
X160920173Y-113761795D01*
X160927902Y-113760059D01*
X160935713Y-113758489D01*
X160943607Y-113757084D01*
X160951583Y-113755844D01*
X160959642Y-113754770D01*
X160967784Y-113753861D01*
X160976008Y-113753117D01*
X160984315Y-113752538D01*
X160992704Y-113752125D01*
X161001177Y-113751877D01*
X161009732Y-113751794D01*
X162296971Y-113751794D01*
X162296971Y-113882274D01*
X160995625Y-113882274D01*
X161556368Y-114442984D01*
X161976043Y-114442984D01*
X162878873Y-113543732D01*
X162970567Y-113635420D01*
X162155949Y-114446511D01*
X162145324Y-114457090D01*
G36*
X162145324Y-114457090D02*
G01*
X162191603Y-114465399D01*
X162237171Y-114475745D01*
X162281979Y-114488081D01*
X162325976Y-114502356D01*
X162369114Y-114518522D01*
X162411341Y-114536529D01*
X162452609Y-114556329D01*
X162484630Y-114573464D01*
X162492867Y-114577872D01*
X162532066Y-114601110D01*
X162570157Y-114625993D01*
X162607089Y-114652472D01*
X162642813Y-114680498D01*
X162677279Y-114710023D01*
X162710437Y-114740996D01*
X162742238Y-114773369D01*
X162772632Y-114807093D01*
X162801569Y-114842119D01*
X162829000Y-114878398D01*
X162854874Y-114915880D01*
X162879142Y-114954517D01*
X162901754Y-114994259D01*
X162922662Y-115035058D01*
X162941813Y-115076864D01*
X162959160Y-115119628D01*
X162974653Y-115163301D01*
X162988241Y-115207834D01*
X162999875Y-115253179D01*
X163009505Y-115299285D01*
X163017082Y-115346105D01*
X163022556Y-115393588D01*
X163024853Y-115426872D01*
X163025876Y-115441685D01*
X163026994Y-115490349D01*
X163026994Y-115553825D01*
X162667272Y-115553825D01*
X162970567Y-115857103D01*
X162878873Y-115948791D01*
X162483885Y-115553825D01*
X161796182Y-115553825D01*
X161796182Y-115423346D01*
X162353398Y-115423346D01*
X161764442Y-114834424D01*
X161175486Y-115423346D01*
X161789129Y-115423346D01*
X161789129Y-115553825D01*
X161044999Y-115553825D01*
X160650010Y-115948791D01*
X160558317Y-115857103D01*
X160861611Y-115553825D01*
X160579477Y-115553825D01*
X160579477Y-114573464D01*
X160709964Y-114573464D01*
X160709964Y-115423346D01*
X160992099Y-115423346D01*
X161665713Y-114746262D01*
X161859662Y-114746262D01*
X162540312Y-115426872D01*
X162896507Y-115426872D01*
X162896507Y-115423346D01*
X162892537Y-115380643D01*
X162886609Y-115338524D01*
X162878769Y-115297036D01*
X162869065Y-115256224D01*
X162857542Y-115216135D01*
X162844247Y-115176816D01*
X162829227Y-115138313D01*
X162812528Y-115100673D01*
X162794196Y-115063942D01*
X162774278Y-115028166D01*
X162752821Y-114993393D01*
X162729871Y-114959669D01*
X162705474Y-114927039D01*
X162679678Y-114895552D01*
X162652528Y-114865252D01*
X162624071Y-114836187D01*
X162594353Y-114808403D01*
X162563421Y-114781947D01*
X162531322Y-114756864D01*
X162498102Y-114733203D01*
X162463807Y-114711008D01*
X162428484Y-114690327D01*
X162392180Y-114671206D01*
X162354941Y-114653691D01*
X162316813Y-114637830D01*
X162277843Y-114623668D01*
X162238077Y-114611252D01*
X162197563Y-114600629D01*
X162156345Y-114591845D01*
X162114472Y-114584946D01*
X162071989Y-114579979D01*
X162028943Y-114576990D01*
X161863189Y-114742735D01*
X161859662Y-114746262D01*
X161665713Y-114746262D01*
X161669222Y-114742735D01*
X161499940Y-114573464D01*
X161683328Y-114573464D01*
X161764442Y-114654573D01*
X161845556Y-114573464D01*
X161683328Y-114573464D01*
X161499940Y-114573464D01*
X160709964Y-114573464D01*
X160579477Y-114573464D01*
X160579477Y-114182025D01*
X160713491Y-114182025D01*
X160713491Y-114446511D01*
X161372980Y-114446511D01*
X160854558Y-113928118D01*
X160839025Y-113938486D01*
X160824196Y-113949732D01*
X160810109Y-113961825D01*
X160796809Y-113974734D01*
X160784334Y-113988428D01*
X160772728Y-114002877D01*
X160767263Y-114010374D01*
X160762031Y-114018049D01*
X160757036Y-114025896D01*
X160752284Y-114033913D01*
X160747780Y-114042095D01*
X160743530Y-114050438D01*
X160739537Y-114058939D01*
X160735808Y-114067593D01*
X160732348Y-114076398D01*
X160729161Y-114085348D01*
X160726253Y-114094440D01*
X160723630Y-114103671D01*
X160721296Y-114113036D01*
X160719256Y-114122531D01*
X160717516Y-114132153D01*
X160716081Y-114141897D01*
X160714955Y-114151761D01*
X160714145Y-114161739D01*
X160713655Y-114171828D01*
X160713491Y-114182025D01*
X160579477Y-114182025D01*
X160579477Y-114178498D01*
X160580295Y-114152224D01*
X160582721Y-114126331D01*
X160586706Y-114100873D01*
X160592206Y-114075900D01*
X160599172Y-114051464D01*
X160607559Y-114027617D01*
X160617320Y-114004411D01*
X160628409Y-113981897D01*
X160640779Y-113960127D01*
X160654384Y-113939152D01*
X160669177Y-113919025D01*
X160685112Y-113899796D01*
X160702142Y-113881518D01*
X160720220Y-113864242D01*
X160739301Y-113848020D01*
X160759337Y-113832903D01*
X160561843Y-113635420D01*
X160653537Y-113543732D01*
X160882771Y-113772953D01*
X160890086Y-113770391D01*
X160897484Y-113767994D01*
X160904965Y-113765762D01*
X160912528Y-113763696D01*
X160920173Y-113761795D01*
X160927902Y-113760059D01*
X160935713Y-113758489D01*
X160943607Y-113757084D01*
X160951583Y-113755844D01*
X160959642Y-113754770D01*
X160967784Y-113753861D01*
X160976008Y-113753117D01*
X160984315Y-113752538D01*
X160992704Y-113752125D01*
X161001177Y-113751877D01*
X161009732Y-113751794D01*
X162296971Y-113751794D01*
X162296971Y-113882274D01*
X160995625Y-113882274D01*
X161556368Y-114442984D01*
X161976043Y-114442984D01*
X162878873Y-113543732D01*
X162970567Y-113635420D01*
X162155949Y-114446511D01*
X162145324Y-114457090D01*
G37*
D10*
X108199680Y-42240795D02*
X109227749Y-44331201D01*
X104807053Y-42275064D02*
X104807053Y-43303132D01*
X107068805Y-44296932D02*
X107856991Y-44296932D01*
D11*
X159783329Y-114953442D02*
X159525000Y-115910000D01*
X159514420Y-115945265D01*
X157398411Y-115945265D01*
X157172703Y-115098909D01*
X157050265Y-114640467D01*
X157176228Y-114640467D01*
X157188626Y-114688846D01*
X157222516Y-114815909D01*
X157272936Y-115002482D01*
X157334929Y-115229389D01*
X157338456Y-115232916D01*
X157497157Y-115818311D01*
X159419199Y-115818311D01*
X159577899Y-115229389D01*
X159689871Y-114813265D01*
X159722713Y-114686862D01*
X159731034Y-114652465D01*
X159733073Y-114640467D01*
X159729987Y-114641128D01*
X159726378Y-114641955D01*
X159721611Y-114643112D01*
X159715853Y-114644600D01*
X159709268Y-114646418D01*
X159705717Y-114647451D01*
X159702022Y-114648567D01*
X159698202Y-114649765D01*
X159694280Y-114651046D01*
X159689062Y-114652948D01*
X159683948Y-114654690D01*
X159678875Y-114656277D01*
X159673781Y-114657714D01*
X159668604Y-114659006D01*
X159663283Y-114660159D01*
X159657756Y-114661177D01*
X159651959Y-114662067D01*
X159645832Y-114662832D01*
X159639313Y-114663479D01*
X159632339Y-114664012D01*
X159624848Y-114664436D01*
X159616779Y-114664757D01*
X159608069Y-114664980D01*
X159588479Y-114665152D01*
X159571991Y-114665013D01*
X159556753Y-114664533D01*
X159542527Y-114663618D01*
X159529076Y-114662177D01*
X159516163Y-114660116D01*
X159503549Y-114657342D01*
X159490998Y-114653762D01*
X159478270Y-114649283D01*
X159465130Y-114643813D01*
X159451338Y-114637257D01*
X159436658Y-114629524D01*
X159420851Y-114620520D01*
X159403681Y-114610153D01*
X159384910Y-114598328D01*
X159341611Y-114569937D01*
X159305008Y-114545362D01*
X159276258Y-114526738D01*
X159264388Y-114519451D01*
X159253954Y-114513404D01*
X159244781Y-114508513D01*
X159236693Y-114504698D01*
X159229513Y-114501874D01*
X159223068Y-114499959D01*
X159217180Y-114498871D01*
X159211675Y-114498526D01*
X159206377Y-114498843D01*
X159201109Y-114499738D01*
X159195697Y-114501130D01*
X159189964Y-114502934D01*
X159183148Y-114505431D01*
X159177262Y-114507701D01*
X159174675Y-114508782D01*
X159172327Y-114509846D01*
X159170222Y-114510905D01*
X159168363Y-114511971D01*
X159166752Y-114513058D01*
X159165391Y-114514178D01*
X159164283Y-114515345D01*
X159163431Y-114516572D01*
X159162838Y-114517871D01*
X159162505Y-114519255D01*
X159162435Y-114520737D01*
X159162632Y-114522330D01*
X159163098Y-114524047D01*
X159163834Y-114525901D01*
X159164845Y-114527905D01*
X159166131Y-114530072D01*
X159167697Y-114532414D01*
X159169544Y-114534945D01*
X159171676Y-114537677D01*
X159174094Y-114540624D01*
X159179801Y-114547212D01*
X159186685Y-114554812D01*
X159204071Y-114573464D01*
X159215443Y-114585630D01*
X159225782Y-114597068D01*
X159235129Y-114607875D01*
X159243526Y-114618151D01*
X159251013Y-114627993D01*
X159257632Y-114637498D01*
X159263425Y-114646767D01*
X159268433Y-114655895D01*
X159272696Y-114664983D01*
X159276257Y-114674127D01*
X159279157Y-114683426D01*
X159281437Y-114692979D01*
X159283138Y-114702882D01*
X159284303Y-114713235D01*
X159284971Y-114724136D01*
X159285184Y-114735682D01*
X159285181Y-114735975D01*
X159285098Y-114744620D01*
X159284826Y-114752963D01*
X159284347Y-114760780D01*
X159283641Y-114768137D01*
X159282687Y-114775101D01*
X159281465Y-114781740D01*
X159279953Y-114788120D01*
X159278131Y-114794310D01*
X159275978Y-114800375D01*
X159273474Y-114806384D01*
X159270599Y-114812403D01*
X159267330Y-114818499D01*
X159263649Y-114824740D01*
X159259533Y-114831193D01*
X159254963Y-114837925D01*
X159249917Y-114845003D01*
X159247071Y-114849048D01*
X159243842Y-114853227D01*
X159240262Y-114857509D01*
X159236362Y-114861864D01*
X159232172Y-114866260D01*
X159227724Y-114870666D01*
X159223049Y-114875052D01*
X159218177Y-114879386D01*
X159213140Y-114883637D01*
X159207969Y-114887775D01*
X159202694Y-114891768D01*
X159197348Y-114895586D01*
X159191959Y-114899197D01*
X159186561Y-114902570D01*
X159181183Y-114905674D01*
X159175857Y-114908479D01*
X159176518Y-114911510D01*
X159177345Y-114914988D01*
X159178502Y-114919500D01*
X159179990Y-114924838D01*
X159180858Y-114927752D01*
X159181808Y-114930795D01*
X159182841Y-114933942D01*
X159183957Y-114937167D01*
X159185156Y-114940443D01*
X159186437Y-114943744D01*
X159188886Y-114952028D01*
X159190947Y-114960344D01*
X159192623Y-114968679D01*
X159193917Y-114977025D01*
X159194835Y-114985372D01*
X159195379Y-114993707D01*
X159195364Y-115010307D01*
X159193902Y-115026741D01*
X159191024Y-115042926D01*
X159186762Y-115058782D01*
X159181147Y-115074224D01*
X159174209Y-115089170D01*
X159165979Y-115103538D01*
X159156489Y-115117244D01*
X159145770Y-115130207D01*
X159133852Y-115142343D01*
X159127453Y-115148075D01*
X159120766Y-115153570D01*
X159113795Y-115158817D01*
X159106544Y-115163805D01*
X159099016Y-115168525D01*
X159091216Y-115172966D01*
X159087322Y-115174867D01*
X159083536Y-115176609D01*
X159079802Y-115178196D01*
X159076063Y-115179633D01*
X159072261Y-115180925D01*
X159068341Y-115182078D01*
X159064245Y-115183096D01*
X159059917Y-115183986D01*
X159055299Y-115184751D01*
X159050336Y-115185398D01*
X159044969Y-115185931D01*
X159039143Y-115186355D01*
X159032800Y-115186676D01*
X159025883Y-115186899D01*
X159018337Y-115187029D01*
X159010103Y-115187071D01*
X158995349Y-115187051D01*
X158982661Y-115186906D01*
X158971792Y-115186513D01*
X158966961Y-115186185D01*
X158962493Y-115185749D01*
X158958355Y-115185188D01*
X158954516Y-115184488D01*
X158950947Y-115183633D01*
X158947614Y-115182608D01*
X158944489Y-115181397D01*
X158941539Y-115179984D01*
X158938734Y-115178354D01*
X158936043Y-115176492D01*
X158918409Y-115165912D01*
X158897249Y-115197651D01*
X158893039Y-115204216D01*
X158888370Y-115210668D01*
X158883277Y-115216976D01*
X158877797Y-115223107D01*
X158871965Y-115229033D01*
X158865818Y-115234720D01*
X158859393Y-115240139D01*
X158852724Y-115245258D01*
X158845849Y-115250047D01*
X158838803Y-115254474D01*
X158831624Y-115258508D01*
X158824345Y-115262119D01*
X158817005Y-115265275D01*
X158809640Y-115267946D01*
X158802284Y-115270100D01*
X158798621Y-115270974D01*
X158794975Y-115271707D01*
X158787426Y-115273486D01*
X158779380Y-115274868D01*
X158770922Y-115275868D01*
X158762133Y-115276501D01*
X158753096Y-115276782D01*
X158743893Y-115276728D01*
X158734608Y-115276353D01*
X158725323Y-115275674D01*
X158716121Y-115274706D01*
X158707083Y-115273463D01*
X158698294Y-115271963D01*
X158689836Y-115270219D01*
X158681790Y-115268248D01*
X158674241Y-115266066D01*
X158667270Y-115263687D01*
X158660961Y-115261127D01*
X158658117Y-115259643D01*
X158654906Y-115257849D01*
X158647571Y-115253413D01*
X158639326Y-115247986D01*
X158634978Y-115244952D01*
X158630543Y-115241732D01*
X158626067Y-115238346D01*
X158621596Y-115234816D01*
X158617176Y-115231163D01*
X158612855Y-115227405D01*
X158608678Y-115223565D01*
X158604692Y-115219664D01*
X158600944Y-115215720D01*
X158597481Y-115211757D01*
X158558687Y-115176492D01*
X158519894Y-115215283D01*
X158508763Y-115226228D01*
X158503714Y-115231021D01*
X158498954Y-115235395D01*
X158494443Y-115239377D01*
X158490137Y-115242992D01*
X158485998Y-115246266D01*
X158481982Y-115249226D01*
X158478049Y-115251895D01*
X158474157Y-115254302D01*
X158470265Y-115256470D01*
X158466332Y-115258427D01*
X158462317Y-115260198D01*
X158458177Y-115261809D01*
X158453872Y-115263286D01*
X158449360Y-115264654D01*
X158441149Y-115267093D01*
X158432436Y-115269124D01*
X158423300Y-115270752D01*
X158413818Y-115271982D01*
X158404067Y-115272820D01*
X158394125Y-115273270D01*
X158384069Y-115273338D01*
X158373977Y-115273029D01*
X158363927Y-115272348D01*
X158353995Y-115271300D01*
X158344260Y-115269891D01*
X158334798Y-115268125D01*
X158325688Y-115266008D01*
X158317006Y-115263545D01*
X158308831Y-115260741D01*
X158301240Y-115257601D01*
X158296810Y-115254492D01*
X158290102Y-115249095D01*
X158269665Y-115231207D01*
X158239557Y-115203485D01*
X158199407Y-115165472D01*
X158148841Y-115116714D01*
X158087490Y-115056757D01*
X158014979Y-114985146D01*
X157930938Y-114901426D01*
X157688038Y-114660303D01*
X157585323Y-114559358D01*
X157579868Y-114562443D01*
X157573607Y-114566053D01*
X157565485Y-114570819D01*
X157555877Y-114576577D01*
X157545152Y-114583161D01*
X157533683Y-114590407D01*
X157521843Y-114598149D01*
X157492369Y-114616208D01*
X157479091Y-114623952D01*
X157466573Y-114630879D01*
X157454654Y-114637021D01*
X157443174Y-114642409D01*
X157431973Y-114647074D01*
X157420891Y-114651046D01*
X157409768Y-114654357D01*
X157398443Y-114657039D01*
X157386757Y-114659120D01*
X157374548Y-114660634D01*
X157361658Y-114661610D01*
X157347926Y-114662080D01*
X157333192Y-114662075D01*
X157317295Y-114661626D01*
X157297705Y-114661598D01*
X157280926Y-114661405D01*
X157266461Y-114660882D01*
X157259942Y-114660444D01*
X157253815Y-114659862D01*
X157248019Y-114659115D01*
X157242491Y-114658182D01*
X157237170Y-114657042D01*
X157231994Y-114655675D01*
X157226900Y-114654060D01*
X157221827Y-114652176D01*
X157216712Y-114650003D01*
X157211495Y-114647520D01*
X157208193Y-114646240D01*
X157204917Y-114645047D01*
X157198545Y-114642946D01*
X157192587Y-114641259D01*
X157189828Y-114640583D01*
X157187249Y-114640026D01*
X157184877Y-114639593D01*
X157182737Y-114639289D01*
X157180856Y-114639119D01*
X157179259Y-114639089D01*
X157177971Y-114639204D01*
X157177020Y-114639468D01*
X157176678Y-114639658D01*
X157176430Y-114639887D01*
X157176279Y-114640157D01*
X157176228Y-114640467D01*
X157050265Y-114640467D01*
X157012239Y-114498085D01*
X156964408Y-114311898D01*
X156946996Y-114238448D01*
X156947097Y-114236115D01*
X156947398Y-114233747D01*
X156947888Y-114231352D01*
X156948559Y-114228937D01*
X156949404Y-114226509D01*
X156950413Y-114224075D01*
X156951578Y-114221642D01*
X156952892Y-114219218D01*
X156954345Y-114216809D01*
X156955929Y-114214423D01*
X156957635Y-114212067D01*
X156959456Y-114209748D01*
X156963407Y-114205247D01*
X156967715Y-114200980D01*
X156972312Y-114197001D01*
X156977131Y-114193369D01*
X156982105Y-114190139D01*
X156984629Y-114188693D01*
X156987167Y-114187370D01*
X156989710Y-114186175D01*
X156992249Y-114185116D01*
X156994777Y-114184201D01*
X156997285Y-114183437D01*
X156999765Y-114182830D01*
X157002208Y-114182387D01*
X157004605Y-114182116D01*
X157005507Y-114182081D01*
X157008007Y-114182149D01*
X157012500Y-114182521D01*
X157016889Y-114183141D01*
X157021165Y-114184008D01*
X157025317Y-114185124D01*
X157029334Y-114186488D01*
X157033207Y-114188100D01*
X157036925Y-114189959D01*
X157040477Y-114192067D01*
X157043854Y-114194423D01*
X157047045Y-114197026D01*
X157050039Y-114199878D01*
X157052827Y-114202977D01*
X157055398Y-114206324D01*
X157057742Y-114209920D01*
X157059848Y-114213763D01*
X157064918Y-114229632D01*
X157073955Y-114258726D01*
X157085637Y-114297076D01*
X157098642Y-114340716D01*
X157121565Y-114419621D01*
X157125850Y-114433665D01*
X157129390Y-114444362D01*
X157132104Y-114451174D01*
X157133125Y-114452955D01*
X157133909Y-114453564D01*
X157138747Y-114457342D01*
X157145171Y-114461967D01*
X157161847Y-114473180D01*
X157182077Y-114486046D01*
X157204001Y-114499408D01*
X157225761Y-114512109D01*
X157245495Y-114522991D01*
X157254022Y-114527389D01*
X157261345Y-114530898D01*
X157267231Y-114533374D01*
X157271449Y-114534673D01*
X157277017Y-114535912D01*
X157283090Y-114536987D01*
X157289597Y-114537896D01*
X157296466Y-114538640D01*
X157303625Y-114539219D01*
X157311000Y-114539632D01*
X157318520Y-114539880D01*
X157326113Y-114539962D01*
X157333705Y-114539880D01*
X157341225Y-114539632D01*
X157348600Y-114539219D01*
X157355759Y-114538640D01*
X157362628Y-114537896D01*
X157369135Y-114536987D01*
X157375209Y-114535912D01*
X157380776Y-114534673D01*
X157384795Y-114533533D01*
X157390116Y-114531504D01*
X157396553Y-114528691D01*
X157403920Y-114525195D01*
X157420699Y-114516572D01*
X157438966Y-114506461D01*
X157457233Y-114495689D01*
X157474013Y-114485082D01*
X157481379Y-114480098D01*
X157487816Y-114475466D01*
X157493137Y-114471289D01*
X157497156Y-114467670D01*
X157473792Y-114442103D01*
X157448058Y-114414111D01*
X157416043Y-114379508D01*
X157374728Y-114336115D01*
X157356639Y-114316310D01*
X157340109Y-114297517D01*
X157325026Y-114279550D01*
X157311276Y-114262225D01*
X157298745Y-114245353D01*
X157287319Y-114228751D01*
X157276885Y-114212231D01*
X157267330Y-114195607D01*
X157258539Y-114178695D01*
X157250399Y-114161307D01*
X157242796Y-114143258D01*
X157235617Y-114124361D01*
X157228748Y-114104432D01*
X157222076Y-114083283D01*
X157217268Y-114066209D01*
X157213369Y-114051159D01*
X157211735Y-114043994D01*
X157210297Y-114036854D01*
X157209045Y-114029579D01*
X157207969Y-114022011D01*
X157207058Y-114013987D01*
X157206302Y-114005349D01*
X157205691Y-113995937D01*
X157205214Y-113985589D01*
X157204861Y-113974146D01*
X157204622Y-113961447D01*
X157204443Y-113931645D01*
X157204474Y-113924126D01*
X157324684Y-113924126D01*
X157324726Y-113948632D01*
X157326113Y-113973246D01*
X157328865Y-113997917D01*
X157332998Y-114022594D01*
X157338531Y-114047225D01*
X157345482Y-114071760D01*
X157353870Y-114096148D01*
X157363712Y-114120338D01*
X157375026Y-114144279D01*
X157387830Y-114167919D01*
X157391862Y-114173853D01*
X157398761Y-114182493D01*
X157408667Y-114193985D01*
X157421719Y-114208473D01*
X157457819Y-114247017D01*
X157508178Y-114299280D01*
X157573911Y-114366421D01*
X157656133Y-114449596D01*
X157874512Y-114668679D01*
X158208665Y-115001931D01*
X158313915Y-115105081D01*
X158344429Y-115133844D01*
X158357668Y-115144754D01*
X158361634Y-115146614D01*
X158365594Y-115148229D01*
X158369541Y-115149601D01*
X158373469Y-115150732D01*
X158377371Y-115151626D01*
X158381240Y-115152285D01*
X158385071Y-115152712D01*
X158388857Y-115152909D01*
X158392591Y-115152878D01*
X158396266Y-115152623D01*
X158399878Y-115152146D01*
X158403418Y-115151449D01*
X158406881Y-115150535D01*
X158410259Y-115149406D01*
X158413548Y-115148066D01*
X158416739Y-115146517D01*
X158419828Y-115144761D01*
X158422806Y-115142801D01*
X158425668Y-115140640D01*
X158428408Y-115138279D01*
X158431018Y-115135723D01*
X158433493Y-115132972D01*
X158435825Y-115130031D01*
X158438010Y-115126901D01*
X158440039Y-115123585D01*
X158441906Y-115120086D01*
X158443606Y-115116406D01*
X158445132Y-115112547D01*
X158446477Y-115108513D01*
X158447634Y-115104306D01*
X158448598Y-115099929D01*
X158449361Y-115095383D01*
X158449361Y-115070698D01*
X158241287Y-114859109D01*
X158029686Y-114647520D01*
X158075533Y-114601676D01*
X158121380Y-114555832D01*
X158421148Y-114855582D01*
X158583320Y-115016974D01*
X158637191Y-115069754D01*
X158676391Y-115107285D01*
X158703523Y-115132087D01*
X158721191Y-115146682D01*
X158731998Y-115153591D01*
X158735643Y-115154950D01*
X158738549Y-115155333D01*
X158742465Y-115155261D01*
X158746276Y-115155045D01*
X158749981Y-115154685D01*
X158753579Y-115154183D01*
X158757068Y-115153539D01*
X158760448Y-115152753D01*
X158763716Y-115151826D01*
X158766873Y-115150760D01*
X158769915Y-115149554D01*
X158772843Y-115148209D01*
X158775654Y-115146726D01*
X158778348Y-115145105D01*
X158780923Y-115143347D01*
X158783378Y-115141454D01*
X158785712Y-115139424D01*
X158787923Y-115137260D01*
X158790009Y-115134961D01*
X158791971Y-115132529D01*
X158793806Y-115129964D01*
X158795513Y-115127266D01*
X158797091Y-115124437D01*
X158798539Y-115121476D01*
X158799855Y-115118385D01*
X158801038Y-115115164D01*
X158802086Y-115111815D01*
X158802999Y-115108336D01*
X158803775Y-115104730D01*
X158804413Y-115100997D01*
X158804911Y-115097137D01*
X158805268Y-115093151D01*
X158805484Y-115089039D01*
X158805556Y-115084804D01*
X158805517Y-115082842D01*
X158805367Y-115080890D01*
X158805056Y-115078893D01*
X158804537Y-115076800D01*
X158803759Y-115074557D01*
X158802673Y-115072111D01*
X158801232Y-115069410D01*
X158799384Y-115066400D01*
X158797082Y-115063028D01*
X158794277Y-115059242D01*
X158790919Y-115054988D01*
X158786958Y-115050214D01*
X158782347Y-115044866D01*
X158777036Y-115038892D01*
X158770976Y-115032239D01*
X158764117Y-115024853D01*
X158756412Y-115016683D01*
X158747810Y-115007674D01*
X158727721Y-114986930D01*
X158703458Y-114962198D01*
X158674628Y-114933055D01*
X158640838Y-114899076D01*
X158601697Y-114859839D01*
X158505788Y-114763894D01*
X158206020Y-114464143D01*
X158251867Y-114418299D01*
X158297714Y-114372455D01*
X158639802Y-114714523D01*
X158827542Y-114901922D01*
X158888825Y-114962417D01*
X158932957Y-115005017D01*
X158963368Y-115032905D01*
X158983488Y-115049263D01*
X158990761Y-115054113D01*
X158996748Y-115057274D01*
X159001877Y-115059143D01*
X159006577Y-115060118D01*
X159011163Y-115060626D01*
X159015659Y-115060835D01*
X159020056Y-115060754D01*
X159024348Y-115060394D01*
X159028526Y-115059765D01*
X159032583Y-115058878D01*
X159036510Y-115057744D01*
X159040301Y-115056371D01*
X159043947Y-115054772D01*
X159047440Y-115052955D01*
X159050774Y-115050932D01*
X159053939Y-115048712D01*
X159056929Y-115046307D01*
X159059735Y-115043726D01*
X159062351Y-115040979D01*
X159064767Y-115038078D01*
X159066977Y-115035032D01*
X159068972Y-115031851D01*
X159070745Y-115028547D01*
X159072289Y-115025129D01*
X159073595Y-115021608D01*
X159074655Y-115017993D01*
X159075462Y-115014296D01*
X159076008Y-115010527D01*
X159076286Y-115006696D01*
X159076287Y-115002813D01*
X159076004Y-114998889D01*
X159075430Y-114994933D01*
X159074555Y-114990957D01*
X159073374Y-114986971D01*
X159071877Y-114982985D01*
X159070057Y-114979009D01*
X159067649Y-114975320D01*
X159061867Y-114968340D01*
X159040907Y-114945232D01*
X159008623Y-114911131D01*
X158966461Y-114867484D01*
X158858291Y-114757337D01*
X158727969Y-114626361D01*
X158491681Y-114389646D01*
X158419494Y-114316417D01*
X158399808Y-114295857D01*
X158392934Y-114287819D01*
X158392985Y-114287437D01*
X158393138Y-114286956D01*
X158393740Y-114285705D01*
X158394724Y-114284092D01*
X158396075Y-114282144D01*
X158397777Y-114279885D01*
X158399815Y-114277343D01*
X158402174Y-114274542D01*
X158404837Y-114271509D01*
X158407789Y-114268269D01*
X158411015Y-114264849D01*
X158414500Y-114261273D01*
X158418227Y-114257568D01*
X158422182Y-114253760D01*
X158426348Y-114249875D01*
X158430711Y-114245938D01*
X158435254Y-114241975D01*
X158477575Y-114199657D01*
X158773816Y-114495881D01*
X158919071Y-114640412D01*
X159012749Y-114731715D01*
X159043552Y-114760608D01*
X159065428Y-114780039D01*
X159079700Y-114791286D01*
X159084398Y-114794242D01*
X159087691Y-114795632D01*
X159091656Y-114796161D01*
X159095613Y-114796429D01*
X159099550Y-114796445D01*
X159103457Y-114796218D01*
X159107326Y-114795755D01*
X159111147Y-114795067D01*
X159114909Y-114794159D01*
X159118604Y-114793042D01*
X159122221Y-114791724D01*
X159125751Y-114790212D01*
X159129184Y-114788516D01*
X159132511Y-114786644D01*
X159135721Y-114784603D01*
X159138806Y-114782404D01*
X159141755Y-114780053D01*
X159144558Y-114777559D01*
X159147207Y-114774931D01*
X159149691Y-114772177D01*
X159152000Y-114769306D01*
X159154126Y-114766325D01*
X159156058Y-114763244D01*
X159157786Y-114760070D01*
X159159301Y-114756813D01*
X159160594Y-114753480D01*
X159161654Y-114750080D01*
X159162471Y-114746621D01*
X159163037Y-114743111D01*
X159163342Y-114739560D01*
X159163375Y-114735975D01*
X159163128Y-114732365D01*
X159162589Y-114728738D01*
X159161751Y-114725103D01*
X159161347Y-114723727D01*
X159160130Y-114721580D01*
X159155235Y-114714943D01*
X159147012Y-114705134D01*
X159135411Y-114692097D01*
X159101866Y-114656109D01*
X159054187Y-114606525D01*
X158991960Y-114542890D01*
X158914773Y-114464749D01*
X158713862Y-114263134D01*
X158713862Y-114259607D01*
X158542983Y-114087581D01*
X158404837Y-113946632D01*
X158313639Y-113851968D01*
X158290089Y-113826746D01*
X158283607Y-113818797D01*
X158286188Y-113819325D01*
X158291197Y-113820871D01*
X158307963Y-113826787D01*
X158332829Y-113836092D01*
X158364721Y-113848332D01*
X158445283Y-113879794D01*
X158541055Y-113917539D01*
X158695017Y-113976773D01*
X158743770Y-113994467D01*
X158762573Y-114000677D01*
X158778224Y-114005260D01*
X158791148Y-114008314D01*
X158801768Y-114009937D01*
X158810507Y-114010227D01*
X158817789Y-114009282D01*
X158824038Y-114007201D01*
X158829678Y-114004082D01*
X158840823Y-113995121D01*
X158842755Y-113993428D01*
X158844584Y-113991655D01*
X158846309Y-113989808D01*
X158847931Y-113987889D01*
X158849450Y-113985904D01*
X158850866Y-113983855D01*
X158852178Y-113981747D01*
X158853387Y-113979583D01*
X158854492Y-113977367D01*
X158855495Y-113975104D01*
X158856393Y-113972797D01*
X158857189Y-113970450D01*
X158857881Y-113968066D01*
X158858470Y-113965651D01*
X158858956Y-113963207D01*
X158859338Y-113960738D01*
X158859617Y-113958249D01*
X158859793Y-113955743D01*
X158859865Y-113953224D01*
X158859834Y-113950696D01*
X158859700Y-113948163D01*
X158859462Y-113945628D01*
X158859121Y-113943097D01*
X158858677Y-113940571D01*
X158858129Y-113938056D01*
X158857478Y-113935555D01*
X158856724Y-113933072D01*
X158855866Y-113930612D01*
X158854906Y-113928177D01*
X158853841Y-113925771D01*
X158852674Y-113923400D01*
X158851403Y-113921065D01*
X158847208Y-113913151D01*
X158846090Y-113911407D01*
X158844747Y-113909667D01*
X158843079Y-113907887D01*
X158840988Y-113906023D01*
X158838376Y-113904029D01*
X158835143Y-113901862D01*
X158831191Y-113899476D01*
X158826420Y-113896828D01*
X158820733Y-113893872D01*
X158814029Y-113890564D01*
X158806211Y-113886860D01*
X158797180Y-113882715D01*
X158786837Y-113878084D01*
X158775083Y-113872923D01*
X158761818Y-113867188D01*
X158746946Y-113860833D01*
X158711979Y-113846087D01*
X158669393Y-113828330D01*
X158618396Y-113807205D01*
X158558199Y-113782355D01*
X158407041Y-113720056D01*
X158119947Y-113600156D01*
X157969732Y-113538442D01*
X157929630Y-113522793D01*
X157904158Y-113513757D01*
X157870985Y-113504941D01*
X157858489Y-113501883D01*
X157844907Y-113499320D01*
X157830396Y-113497254D01*
X157815109Y-113495684D01*
X157799203Y-113494609D01*
X157782832Y-113494031D01*
X157766151Y-113493948D01*
X157749315Y-113494361D01*
X157732479Y-113495270D01*
X157715798Y-113496675D01*
X157699426Y-113498576D01*
X157683520Y-113500973D01*
X157668234Y-113503866D01*
X157653722Y-113507255D01*
X157640141Y-113511140D01*
X157627644Y-113515520D01*
X157602654Y-113524748D01*
X157578612Y-113535206D01*
X157555536Y-113546843D01*
X157533443Y-113559608D01*
X157512354Y-113573450D01*
X157492284Y-113588318D01*
X157473253Y-113604162D01*
X157455278Y-113620929D01*
X157438378Y-113638569D01*
X157422570Y-113657031D01*
X157407873Y-113676265D01*
X157394305Y-113696218D01*
X157381884Y-113716840D01*
X157370627Y-113738080D01*
X157360554Y-113759887D01*
X157351682Y-113782210D01*
X157344029Y-113804998D01*
X157337613Y-113828200D01*
X157332452Y-113851765D01*
X157328565Y-113875641D01*
X157325970Y-113899779D01*
X157324684Y-113924126D01*
X157204474Y-113924126D01*
X157204663Y-113878747D01*
X157205187Y-113858746D01*
X157206206Y-113841719D01*
X157206953Y-113834012D01*
X157207887Y-113826677D01*
X157209027Y-113819589D01*
X157210394Y-113812626D01*
X157212009Y-113805663D01*
X157213893Y-113798575D01*
X157218550Y-113783532D01*
X157224860Y-113762552D01*
X157231880Y-113741936D01*
X157247989Y-113701859D01*
X157266764Y-113663413D01*
X157288091Y-113626714D01*
X157311857Y-113591875D01*
X157337947Y-113559009D01*
X157366248Y-113528229D01*
X157396647Y-113499651D01*
X157429030Y-113473386D01*
X157463282Y-113449550D01*
X157499291Y-113428255D01*
X157517919Y-113418596D01*
X157536943Y-113409615D01*
X157556350Y-113401327D01*
X157576124Y-113393745D01*
X157596252Y-113386883D01*
X157616720Y-113380756D01*
X157637514Y-113375378D01*
X157658619Y-113370764D01*
X157680021Y-113366927D01*
X157701705Y-113363881D01*
X157722218Y-113361567D01*
X157739507Y-113359914D01*
X157754647Y-113358922D01*
X157761747Y-113358674D01*
X157768712Y-113358592D01*
X157775678Y-113358674D01*
X157782778Y-113358922D01*
X157797917Y-113359914D01*
X157815206Y-113361567D01*
X157835719Y-113363881D01*
X157839885Y-113364002D01*
X157844412Y-113364350D01*
X157849249Y-113364904D01*
X157854344Y-113365645D01*
X157865104Y-113367601D01*
X157876276Y-113370053D01*
X157887448Y-113372835D01*
X157898207Y-113375783D01*
X157908140Y-113378731D01*
X157916833Y-113381514D01*
X158093057Y-113450445D01*
X158424675Y-113586490D01*
X158751003Y-113723197D01*
X158861969Y-113771031D01*
X158911357Y-113794112D01*
X158920364Y-113801009D01*
X158928859Y-113808459D01*
X158936828Y-113816436D01*
X158944254Y-113824913D01*
X158951122Y-113833867D01*
X158957417Y-113843269D01*
X158963123Y-113853095D01*
X158968225Y-113863319D01*
X158972706Y-113873915D01*
X158976552Y-113884857D01*
X158979747Y-113896119D01*
X158982276Y-113907676D01*
X158984123Y-113919501D01*
X158985272Y-113931569D01*
X158985709Y-113943854D01*
X158985417Y-113956330D01*
X158984581Y-113965183D01*
X158983400Y-113973884D01*
X158981879Y-113982426D01*
X158980024Y-113990803D01*
X158977841Y-113999006D01*
X158975336Y-114007029D01*
X158972514Y-114014865D01*
X158969382Y-114022507D01*
X158965945Y-114029947D01*
X158962209Y-114037178D01*
X158958180Y-114044194D01*
X158953863Y-114050987D01*
X158949265Y-114057550D01*
X158944391Y-114063876D01*
X158939247Y-114069959D01*
X158933839Y-114075789D01*
X158928173Y-114081362D01*
X158922255Y-114086669D01*
X158916089Y-114091704D01*
X158909683Y-114096459D01*
X158903042Y-114100928D01*
X158896171Y-114105102D01*
X158889077Y-114108976D01*
X158881766Y-114112542D01*
X158874242Y-114115793D01*
X158866513Y-114118721D01*
X158858584Y-114121320D01*
X158850460Y-114123583D01*
X158842147Y-114125502D01*
X158833652Y-114127071D01*
X158824980Y-114128281D01*
X158816137Y-114129127D01*
X158777343Y-114129127D01*
X158921937Y-114277240D01*
X159004263Y-114359230D01*
X159030424Y-114384604D01*
X159048898Y-114401548D01*
X159055794Y-114407323D01*
X159061420Y-114411549D01*
X159065992Y-114414411D01*
X159069727Y-114416095D01*
X159072842Y-114416787D01*
X159075554Y-114416673D01*
X159078081Y-114415940D01*
X159080638Y-114414772D01*
X159089655Y-114409066D01*
X159098223Y-114403835D01*
X159106388Y-114399058D01*
X159114196Y-114394716D01*
X159121695Y-114390786D01*
X159128930Y-114387249D01*
X159135948Y-114384084D01*
X159142796Y-114381271D01*
X159149519Y-114378788D01*
X159156165Y-114376615D01*
X159162780Y-114374731D01*
X159169411Y-114373116D01*
X159176104Y-114371749D01*
X159182905Y-114370609D01*
X159189861Y-114369675D01*
X159197018Y-114368928D01*
X159208537Y-114367863D01*
X159219404Y-114367351D01*
X159229797Y-114367448D01*
X159239889Y-114368212D01*
X159244878Y-114368861D01*
X159249858Y-114369699D01*
X159254851Y-114370731D01*
X159259879Y-114371966D01*
X159264963Y-114373409D01*
X159270126Y-114375069D01*
X159280777Y-114379067D01*
X159292006Y-114384015D01*
X159303990Y-114389970D01*
X159316903Y-114396989D01*
X159330922Y-114405130D01*
X159346222Y-114414448D01*
X159362979Y-114425001D01*
X159401566Y-114450037D01*
X159438196Y-114474647D01*
X159467140Y-114493512D01*
X159479220Y-114501062D01*
X159489967Y-114507501D01*
X159499578Y-114512938D01*
X159508248Y-114517481D01*
X159516174Y-114521239D01*
X159523553Y-114524321D01*
X159530581Y-114526834D01*
X159537453Y-114528887D01*
X159544367Y-114530589D01*
X159551519Y-114532049D01*
X159567320Y-114534673D01*
X159577161Y-114535746D01*
X159586868Y-114536319D01*
X159596472Y-114536385D01*
X159606003Y-114535940D01*
X159615493Y-114534978D01*
X159624973Y-114533495D01*
X159634473Y-114531485D01*
X159644025Y-114528942D01*
X159653660Y-114525863D01*
X159663408Y-114522240D01*
X159673301Y-114518071D01*
X159683370Y-114513349D01*
X159693645Y-114508068D01*
X159704158Y-114502225D01*
X159714939Y-114495813D01*
X159726021Y-114488829D01*
X159746740Y-114475825D01*
X159756273Y-114469736D01*
X159764814Y-114464143D01*
X159772033Y-114459212D01*
X159777598Y-114455107D01*
X159779658Y-114453416D01*
X159781180Y-114451993D01*
X159782124Y-114450860D01*
X159782366Y-114450409D01*
X159782447Y-114450037D01*
X159793468Y-114416095D01*
X159804765Y-114380114D01*
X159811136Y-114359251D01*
X159817714Y-114337190D01*
X159830168Y-114293550D01*
X159840638Y-114255199D01*
X159848463Y-114226106D01*
X159852981Y-114210237D01*
X159853694Y-114208594D01*
X159854507Y-114206974D01*
X159855418Y-114205379D01*
X159856425Y-114203810D01*
X159857525Y-114202270D01*
X159858716Y-114200760D01*
X159859994Y-114199282D01*
X159861357Y-114197839D01*
X159862803Y-114196431D01*
X159864329Y-114195062D01*
X159865933Y-114193733D01*
X159867612Y-114192446D01*
X159869362Y-114191202D01*
X159871183Y-114190005D01*
X159873071Y-114188855D01*
X159875023Y-114187755D01*
X159877037Y-114186707D01*
X159879111Y-114185712D01*
X159881242Y-114184773D01*
X159883427Y-114183891D01*
X159885663Y-114183069D01*
X159887949Y-114182308D01*
X159890281Y-114181610D01*
X159892656Y-114180978D01*
X159895074Y-114180413D01*
X159897530Y-114179916D01*
X159900022Y-114179491D01*
X159902548Y-114179139D01*
X159905104Y-114178862D01*
X159907690Y-114178661D01*
X159910301Y-114178539D01*
X159912935Y-114178498D01*
X159915279Y-114178590D01*
X159917676Y-114178861D01*
X159920119Y-114179303D01*
X159922599Y-114179910D01*
X159925107Y-114180675D01*
X159927635Y-114181590D01*
X159930174Y-114182648D01*
X159932717Y-114183843D01*
X159937779Y-114186613D01*
X159942753Y-114189842D01*
X159947572Y-114193475D01*
X159952169Y-114197453D01*
X159956477Y-114201721D01*
X159960428Y-114206221D01*
X159963956Y-114210897D01*
X159965539Y-114213283D01*
X159966992Y-114215692D01*
X159968306Y-114218116D01*
X159969471Y-114220548D01*
X159970480Y-114222982D01*
X159971325Y-114225410D01*
X159971996Y-114227825D01*
X159972486Y-114230220D01*
X159972787Y-114232588D01*
X159972888Y-114234922D01*
X159865898Y-114640467D01*
X159783329Y-114953442D01*
G36*
X159783329Y-114953442D02*
G01*
X159525000Y-115910000D01*
X159514420Y-115945265D01*
X157398411Y-115945265D01*
X157172703Y-115098909D01*
X157050265Y-114640467D01*
X157176228Y-114640467D01*
X157188626Y-114688846D01*
X157222516Y-114815909D01*
X157272936Y-115002482D01*
X157334929Y-115229389D01*
X157338456Y-115232916D01*
X157497157Y-115818311D01*
X159419199Y-115818311D01*
X159577899Y-115229389D01*
X159689871Y-114813265D01*
X159722713Y-114686862D01*
X159731034Y-114652465D01*
X159733073Y-114640467D01*
X159729987Y-114641128D01*
X159726378Y-114641955D01*
X159721611Y-114643112D01*
X159715853Y-114644600D01*
X159709268Y-114646418D01*
X159705717Y-114647451D01*
X159702022Y-114648567D01*
X159698202Y-114649765D01*
X159694280Y-114651046D01*
X159689062Y-114652948D01*
X159683948Y-114654690D01*
X159678875Y-114656277D01*
X159673781Y-114657714D01*
X159668604Y-114659006D01*
X159663283Y-114660159D01*
X159657756Y-114661177D01*
X159651959Y-114662067D01*
X159645832Y-114662832D01*
X159639313Y-114663479D01*
X159632339Y-114664012D01*
X159624848Y-114664436D01*
X159616779Y-114664757D01*
X159608069Y-114664980D01*
X159588479Y-114665152D01*
X159571991Y-114665013D01*
X159556753Y-114664533D01*
X159542527Y-114663618D01*
X159529076Y-114662177D01*
X159516163Y-114660116D01*
X159503549Y-114657342D01*
X159490998Y-114653762D01*
X159478270Y-114649283D01*
X159465130Y-114643813D01*
X159451338Y-114637257D01*
X159436658Y-114629524D01*
X159420851Y-114620520D01*
X159403681Y-114610153D01*
X159384910Y-114598328D01*
X159341611Y-114569937D01*
X159305008Y-114545362D01*
X159276258Y-114526738D01*
X159264388Y-114519451D01*
X159253954Y-114513404D01*
X159244781Y-114508513D01*
X159236693Y-114504698D01*
X159229513Y-114501874D01*
X159223068Y-114499959D01*
X159217180Y-114498871D01*
X159211675Y-114498526D01*
X159206377Y-114498843D01*
X159201109Y-114499738D01*
X159195697Y-114501130D01*
X159189964Y-114502934D01*
X159183148Y-114505431D01*
X159177262Y-114507701D01*
X159174675Y-114508782D01*
X159172327Y-114509846D01*
X159170222Y-114510905D01*
X159168363Y-114511971D01*
X159166752Y-114513058D01*
X159165391Y-114514178D01*
X159164283Y-114515345D01*
X159163431Y-114516572D01*
X159162838Y-114517871D01*
X159162505Y-114519255D01*
X159162435Y-114520737D01*
X159162632Y-114522330D01*
X159163098Y-114524047D01*
X159163834Y-114525901D01*
X159164845Y-114527905D01*
X159166131Y-114530072D01*
X159167697Y-114532414D01*
X159169544Y-114534945D01*
X159171676Y-114537677D01*
X159174094Y-114540624D01*
X159179801Y-114547212D01*
X159186685Y-114554812D01*
X159204071Y-114573464D01*
X159215443Y-114585630D01*
X159225782Y-114597068D01*
X159235129Y-114607875D01*
X159243526Y-114618151D01*
X159251013Y-114627993D01*
X159257632Y-114637498D01*
X159263425Y-114646767D01*
X159268433Y-114655895D01*
X159272696Y-114664983D01*
X159276257Y-114674127D01*
X159279157Y-114683426D01*
X159281437Y-114692979D01*
X159283138Y-114702882D01*
X159284303Y-114713235D01*
X159284971Y-114724136D01*
X159285184Y-114735682D01*
X159285181Y-114735975D01*
X159285098Y-114744620D01*
X159284826Y-114752963D01*
X159284347Y-114760780D01*
X159283641Y-114768137D01*
X159282687Y-114775101D01*
X159281465Y-114781740D01*
X159279953Y-114788120D01*
X159278131Y-114794310D01*
X159275978Y-114800375D01*
X159273474Y-114806384D01*
X159270599Y-114812403D01*
X159267330Y-114818499D01*
X159263649Y-114824740D01*
X159259533Y-114831193D01*
X159254963Y-114837925D01*
X159249917Y-114845003D01*
X159247071Y-114849048D01*
X159243842Y-114853227D01*
X159240262Y-114857509D01*
X159236362Y-114861864D01*
X159232172Y-114866260D01*
X159227724Y-114870666D01*
X159223049Y-114875052D01*
X159218177Y-114879386D01*
X159213140Y-114883637D01*
X159207969Y-114887775D01*
X159202694Y-114891768D01*
X159197348Y-114895586D01*
X159191959Y-114899197D01*
X159186561Y-114902570D01*
X159181183Y-114905674D01*
X159175857Y-114908479D01*
X159176518Y-114911510D01*
X159177345Y-114914988D01*
X159178502Y-114919500D01*
X159179990Y-114924838D01*
X159180858Y-114927752D01*
X159181808Y-114930795D01*
X159182841Y-114933942D01*
X159183957Y-114937167D01*
X159185156Y-114940443D01*
X159186437Y-114943744D01*
X159188886Y-114952028D01*
X159190947Y-114960344D01*
X159192623Y-114968679D01*
X159193917Y-114977025D01*
X159194835Y-114985372D01*
X159195379Y-114993707D01*
X159195364Y-115010307D01*
X159193902Y-115026741D01*
X159191024Y-115042926D01*
X159186762Y-115058782D01*
X159181147Y-115074224D01*
X159174209Y-115089170D01*
X159165979Y-115103538D01*
X159156489Y-115117244D01*
X159145770Y-115130207D01*
X159133852Y-115142343D01*
X159127453Y-115148075D01*
X159120766Y-115153570D01*
X159113795Y-115158817D01*
X159106544Y-115163805D01*
X159099016Y-115168525D01*
X159091216Y-115172966D01*
X159087322Y-115174867D01*
X159083536Y-115176609D01*
X159079802Y-115178196D01*
X159076063Y-115179633D01*
X159072261Y-115180925D01*
X159068341Y-115182078D01*
X159064245Y-115183096D01*
X159059917Y-115183986D01*
X159055299Y-115184751D01*
X159050336Y-115185398D01*
X159044969Y-115185931D01*
X159039143Y-115186355D01*
X159032800Y-115186676D01*
X159025883Y-115186899D01*
X159018337Y-115187029D01*
X159010103Y-115187071D01*
X158995349Y-115187051D01*
X158982661Y-115186906D01*
X158971792Y-115186513D01*
X158966961Y-115186185D01*
X158962493Y-115185749D01*
X158958355Y-115185188D01*
X158954516Y-115184488D01*
X158950947Y-115183633D01*
X158947614Y-115182608D01*
X158944489Y-115181397D01*
X158941539Y-115179984D01*
X158938734Y-115178354D01*
X158936043Y-115176492D01*
X158918409Y-115165912D01*
X158897249Y-115197651D01*
X158893039Y-115204216D01*
X158888370Y-115210668D01*
X158883277Y-115216976D01*
X158877797Y-115223107D01*
X158871965Y-115229033D01*
X158865818Y-115234720D01*
X158859393Y-115240139D01*
X158852724Y-115245258D01*
X158845849Y-115250047D01*
X158838803Y-115254474D01*
X158831624Y-115258508D01*
X158824345Y-115262119D01*
X158817005Y-115265275D01*
X158809640Y-115267946D01*
X158802284Y-115270100D01*
X158798621Y-115270974D01*
X158794975Y-115271707D01*
X158787426Y-115273486D01*
X158779380Y-115274868D01*
X158770922Y-115275868D01*
X158762133Y-115276501D01*
X158753096Y-115276782D01*
X158743893Y-115276728D01*
X158734608Y-115276353D01*
X158725323Y-115275674D01*
X158716121Y-115274706D01*
X158707083Y-115273463D01*
X158698294Y-115271963D01*
X158689836Y-115270219D01*
X158681790Y-115268248D01*
X158674241Y-115266066D01*
X158667270Y-115263687D01*
X158660961Y-115261127D01*
X158658117Y-115259643D01*
X158654906Y-115257849D01*
X158647571Y-115253413D01*
X158639326Y-115247986D01*
X158634978Y-115244952D01*
X158630543Y-115241732D01*
X158626067Y-115238346D01*
X158621596Y-115234816D01*
X158617176Y-115231163D01*
X158612855Y-115227405D01*
X158608678Y-115223565D01*
X158604692Y-115219664D01*
X158600944Y-115215720D01*
X158597481Y-115211757D01*
X158558687Y-115176492D01*
X158519894Y-115215283D01*
X158508763Y-115226228D01*
X158503714Y-115231021D01*
X158498954Y-115235395D01*
X158494443Y-115239377D01*
X158490137Y-115242992D01*
X158485998Y-115246266D01*
X158481982Y-115249226D01*
X158478049Y-115251895D01*
X158474157Y-115254302D01*
X158470265Y-115256470D01*
X158466332Y-115258427D01*
X158462317Y-115260198D01*
X158458177Y-115261809D01*
X158453872Y-115263286D01*
X158449360Y-115264654D01*
X158441149Y-115267093D01*
X158432436Y-115269124D01*
X158423300Y-115270752D01*
X158413818Y-115271982D01*
X158404067Y-115272820D01*
X158394125Y-115273270D01*
X158384069Y-115273338D01*
X158373977Y-115273029D01*
X158363927Y-115272348D01*
X158353995Y-115271300D01*
X158344260Y-115269891D01*
X158334798Y-115268125D01*
X158325688Y-115266008D01*
X158317006Y-115263545D01*
X158308831Y-115260741D01*
X158301240Y-115257601D01*
X158296810Y-115254492D01*
X158290102Y-115249095D01*
X158269665Y-115231207D01*
X158239557Y-115203485D01*
X158199407Y-115165472D01*
X158148841Y-115116714D01*
X158087490Y-115056757D01*
X158014979Y-114985146D01*
X157930938Y-114901426D01*
X157688038Y-114660303D01*
X157585323Y-114559358D01*
X157579868Y-114562443D01*
X157573607Y-114566053D01*
X157565485Y-114570819D01*
X157555877Y-114576577D01*
X157545152Y-114583161D01*
X157533683Y-114590407D01*
X157521843Y-114598149D01*
X157492369Y-114616208D01*
X157479091Y-114623952D01*
X157466573Y-114630879D01*
X157454654Y-114637021D01*
X157443174Y-114642409D01*
X157431973Y-114647074D01*
X157420891Y-114651046D01*
X157409768Y-114654357D01*
X157398443Y-114657039D01*
X157386757Y-114659120D01*
X157374548Y-114660634D01*
X157361658Y-114661610D01*
X157347926Y-114662080D01*
X157333192Y-114662075D01*
X157317295Y-114661626D01*
X157297705Y-114661598D01*
X157280926Y-114661405D01*
X157266461Y-114660882D01*
X157259942Y-114660444D01*
X157253815Y-114659862D01*
X157248019Y-114659115D01*
X157242491Y-114658182D01*
X157237170Y-114657042D01*
X157231994Y-114655675D01*
X157226900Y-114654060D01*
X157221827Y-114652176D01*
X157216712Y-114650003D01*
X157211495Y-114647520D01*
X157208193Y-114646240D01*
X157204917Y-114645047D01*
X157198545Y-114642946D01*
X157192587Y-114641259D01*
X157189828Y-114640583D01*
X157187249Y-114640026D01*
X157184877Y-114639593D01*
X157182737Y-114639289D01*
X157180856Y-114639119D01*
X157179259Y-114639089D01*
X157177971Y-114639204D01*
X157177020Y-114639468D01*
X157176678Y-114639658D01*
X157176430Y-114639887D01*
X157176279Y-114640157D01*
X157176228Y-114640467D01*
X157050265Y-114640467D01*
X157012239Y-114498085D01*
X156964408Y-114311898D01*
X156946996Y-114238448D01*
X156947097Y-114236115D01*
X156947398Y-114233747D01*
X156947888Y-114231352D01*
X156948559Y-114228937D01*
X156949404Y-114226509D01*
X156950413Y-114224075D01*
X156951578Y-114221642D01*
X156952892Y-114219218D01*
X156954345Y-114216809D01*
X156955929Y-114214423D01*
X156957635Y-114212067D01*
X156959456Y-114209748D01*
X156963407Y-114205247D01*
X156967715Y-114200980D01*
X156972312Y-114197001D01*
X156977131Y-114193369D01*
X156982105Y-114190139D01*
X156984629Y-114188693D01*
X156987167Y-114187370D01*
X156989710Y-114186175D01*
X156992249Y-114185116D01*
X156994777Y-114184201D01*
X156997285Y-114183437D01*
X156999765Y-114182830D01*
X157002208Y-114182387D01*
X157004605Y-114182116D01*
X157005507Y-114182081D01*
X157008007Y-114182149D01*
X157012500Y-114182521D01*
X157016889Y-114183141D01*
X157021165Y-114184008D01*
X157025317Y-114185124D01*
X157029334Y-114186488D01*
X157033207Y-114188100D01*
X157036925Y-114189959D01*
X157040477Y-114192067D01*
X157043854Y-114194423D01*
X157047045Y-114197026D01*
X157050039Y-114199878D01*
X157052827Y-114202977D01*
X157055398Y-114206324D01*
X157057742Y-114209920D01*
X157059848Y-114213763D01*
X157064918Y-114229632D01*
X157073955Y-114258726D01*
X157085637Y-114297076D01*
X157098642Y-114340716D01*
X157121565Y-114419621D01*
X157125850Y-114433665D01*
X157129390Y-114444362D01*
X157132104Y-114451174D01*
X157133125Y-114452955D01*
X157133909Y-114453564D01*
X157138747Y-114457342D01*
X157145171Y-114461967D01*
X157161847Y-114473180D01*
X157182077Y-114486046D01*
X157204001Y-114499408D01*
X157225761Y-114512109D01*
X157245495Y-114522991D01*
X157254022Y-114527389D01*
X157261345Y-114530898D01*
X157267231Y-114533374D01*
X157271449Y-114534673D01*
X157277017Y-114535912D01*
X157283090Y-114536987D01*
X157289597Y-114537896D01*
X157296466Y-114538640D01*
X157303625Y-114539219D01*
X157311000Y-114539632D01*
X157318520Y-114539880D01*
X157326113Y-114539962D01*
X157333705Y-114539880D01*
X157341225Y-114539632D01*
X157348600Y-114539219D01*
X157355759Y-114538640D01*
X157362628Y-114537896D01*
X157369135Y-114536987D01*
X157375209Y-114535912D01*
X157380776Y-114534673D01*
X157384795Y-114533533D01*
X157390116Y-114531504D01*
X157396553Y-114528691D01*
X157403920Y-114525195D01*
X157420699Y-114516572D01*
X157438966Y-114506461D01*
X157457233Y-114495689D01*
X157474013Y-114485082D01*
X157481379Y-114480098D01*
X157487816Y-114475466D01*
X157493137Y-114471289D01*
X157497156Y-114467670D01*
X157473792Y-114442103D01*
X157448058Y-114414111D01*
X157416043Y-114379508D01*
X157374728Y-114336115D01*
X157356639Y-114316310D01*
X157340109Y-114297517D01*
X157325026Y-114279550D01*
X157311276Y-114262225D01*
X157298745Y-114245353D01*
X157287319Y-114228751D01*
X157276885Y-114212231D01*
X157267330Y-114195607D01*
X157258539Y-114178695D01*
X157250399Y-114161307D01*
X157242796Y-114143258D01*
X157235617Y-114124361D01*
X157228748Y-114104432D01*
X157222076Y-114083283D01*
X157217268Y-114066209D01*
X157213369Y-114051159D01*
X157211735Y-114043994D01*
X157210297Y-114036854D01*
X157209045Y-114029579D01*
X157207969Y-114022011D01*
X157207058Y-114013987D01*
X157206302Y-114005349D01*
X157205691Y-113995937D01*
X157205214Y-113985589D01*
X157204861Y-113974146D01*
X157204622Y-113961447D01*
X157204443Y-113931645D01*
X157204474Y-113924126D01*
X157324684Y-113924126D01*
X157324726Y-113948632D01*
X157326113Y-113973246D01*
X157328865Y-113997917D01*
X157332998Y-114022594D01*
X157338531Y-114047225D01*
X157345482Y-114071760D01*
X157353870Y-114096148D01*
X157363712Y-114120338D01*
X157375026Y-114144279D01*
X157387830Y-114167919D01*
X157391862Y-114173853D01*
X157398761Y-114182493D01*
X157408667Y-114193985D01*
X157421719Y-114208473D01*
X157457819Y-114247017D01*
X157508178Y-114299280D01*
X157573911Y-114366421D01*
X157656133Y-114449596D01*
X157874512Y-114668679D01*
X158208665Y-115001931D01*
X158313915Y-115105081D01*
X158344429Y-115133844D01*
X158357668Y-115144754D01*
X158361634Y-115146614D01*
X158365594Y-115148229D01*
X158369541Y-115149601D01*
X158373469Y-115150732D01*
X158377371Y-115151626D01*
X158381240Y-115152285D01*
X158385071Y-115152712D01*
X158388857Y-115152909D01*
X158392591Y-115152878D01*
X158396266Y-115152623D01*
X158399878Y-115152146D01*
X158403418Y-115151449D01*
X158406881Y-115150535D01*
X158410259Y-115149406D01*
X158413548Y-115148066D01*
X158416739Y-115146517D01*
X158419828Y-115144761D01*
X158422806Y-115142801D01*
X158425668Y-115140640D01*
X158428408Y-115138279D01*
X158431018Y-115135723D01*
X158433493Y-115132972D01*
X158435825Y-115130031D01*
X158438010Y-115126901D01*
X158440039Y-115123585D01*
X158441906Y-115120086D01*
X158443606Y-115116406D01*
X158445132Y-115112547D01*
X158446477Y-115108513D01*
X158447634Y-115104306D01*
X158448598Y-115099929D01*
X158449361Y-115095383D01*
X158449361Y-115070698D01*
X158241287Y-114859109D01*
X158029686Y-114647520D01*
X158075533Y-114601676D01*
X158121380Y-114555832D01*
X158421148Y-114855582D01*
X158583320Y-115016974D01*
X158637191Y-115069754D01*
X158676391Y-115107285D01*
X158703523Y-115132087D01*
X158721191Y-115146682D01*
X158731998Y-115153591D01*
X158735643Y-115154950D01*
X158738549Y-115155333D01*
X158742465Y-115155261D01*
X158746276Y-115155045D01*
X158749981Y-115154685D01*
X158753579Y-115154183D01*
X158757068Y-115153539D01*
X158760448Y-115152753D01*
X158763716Y-115151826D01*
X158766873Y-115150760D01*
X158769915Y-115149554D01*
X158772843Y-115148209D01*
X158775654Y-115146726D01*
X158778348Y-115145105D01*
X158780923Y-115143347D01*
X158783378Y-115141454D01*
X158785712Y-115139424D01*
X158787923Y-115137260D01*
X158790009Y-115134961D01*
X158791971Y-115132529D01*
X158793806Y-115129964D01*
X158795513Y-115127266D01*
X158797091Y-115124437D01*
X158798539Y-115121476D01*
X158799855Y-115118385D01*
X158801038Y-115115164D01*
X158802086Y-115111815D01*
X158802999Y-115108336D01*
X158803775Y-115104730D01*
X158804413Y-115100997D01*
X158804911Y-115097137D01*
X158805268Y-115093151D01*
X158805484Y-115089039D01*
X158805556Y-115084804D01*
X158805517Y-115082842D01*
X158805367Y-115080890D01*
X158805056Y-115078893D01*
X158804537Y-115076800D01*
X158803759Y-115074557D01*
X158802673Y-115072111D01*
X158801232Y-115069410D01*
X158799384Y-115066400D01*
X158797082Y-115063028D01*
X158794277Y-115059242D01*
X158790919Y-115054988D01*
X158786958Y-115050214D01*
X158782347Y-115044866D01*
X158777036Y-115038892D01*
X158770976Y-115032239D01*
X158764117Y-115024853D01*
X158756412Y-115016683D01*
X158747810Y-115007674D01*
X158727721Y-114986930D01*
X158703458Y-114962198D01*
X158674628Y-114933055D01*
X158640838Y-114899076D01*
X158601697Y-114859839D01*
X158505788Y-114763894D01*
X158206020Y-114464143D01*
X158251867Y-114418299D01*
X158297714Y-114372455D01*
X158639802Y-114714523D01*
X158827542Y-114901922D01*
X158888825Y-114962417D01*
X158932957Y-115005017D01*
X158963368Y-115032905D01*
X158983488Y-115049263D01*
X158990761Y-115054113D01*
X158996748Y-115057274D01*
X159001877Y-115059143D01*
X159006577Y-115060118D01*
X159011163Y-115060626D01*
X159015659Y-115060835D01*
X159020056Y-115060754D01*
X159024348Y-115060394D01*
X159028526Y-115059765D01*
X159032583Y-115058878D01*
X159036510Y-115057744D01*
X159040301Y-115056371D01*
X159043947Y-115054772D01*
X159047440Y-115052955D01*
X159050774Y-115050932D01*
X159053939Y-115048712D01*
X159056929Y-115046307D01*
X159059735Y-115043726D01*
X159062351Y-115040979D01*
X159064767Y-115038078D01*
X159066977Y-115035032D01*
X159068972Y-115031851D01*
X159070745Y-115028547D01*
X159072289Y-115025129D01*
X159073595Y-115021608D01*
X159074655Y-115017993D01*
X159075462Y-115014296D01*
X159076008Y-115010527D01*
X159076286Y-115006696D01*
X159076287Y-115002813D01*
X159076004Y-114998889D01*
X159075430Y-114994933D01*
X159074555Y-114990957D01*
X159073374Y-114986971D01*
X159071877Y-114982985D01*
X159070057Y-114979009D01*
X159067649Y-114975320D01*
X159061867Y-114968340D01*
X159040907Y-114945232D01*
X159008623Y-114911131D01*
X158966461Y-114867484D01*
X158858291Y-114757337D01*
X158727969Y-114626361D01*
X158491681Y-114389646D01*
X158419494Y-114316417D01*
X158399808Y-114295857D01*
X158392934Y-114287819D01*
X158392985Y-114287437D01*
X158393138Y-114286956D01*
X158393740Y-114285705D01*
X158394724Y-114284092D01*
X158396075Y-114282144D01*
X158397777Y-114279885D01*
X158399815Y-114277343D01*
X158402174Y-114274542D01*
X158404837Y-114271509D01*
X158407789Y-114268269D01*
X158411015Y-114264849D01*
X158414500Y-114261273D01*
X158418227Y-114257568D01*
X158422182Y-114253760D01*
X158426348Y-114249875D01*
X158430711Y-114245938D01*
X158435254Y-114241975D01*
X158477575Y-114199657D01*
X158773816Y-114495881D01*
X158919071Y-114640412D01*
X159012749Y-114731715D01*
X159043552Y-114760608D01*
X159065428Y-114780039D01*
X159079700Y-114791286D01*
X159084398Y-114794242D01*
X159087691Y-114795632D01*
X159091656Y-114796161D01*
X159095613Y-114796429D01*
X159099550Y-114796445D01*
X159103457Y-114796218D01*
X159107326Y-114795755D01*
X159111147Y-114795067D01*
X159114909Y-114794159D01*
X159118604Y-114793042D01*
X159122221Y-114791724D01*
X159125751Y-114790212D01*
X159129184Y-114788516D01*
X159132511Y-114786644D01*
X159135721Y-114784603D01*
X159138806Y-114782404D01*
X159141755Y-114780053D01*
X159144558Y-114777559D01*
X159147207Y-114774931D01*
X159149691Y-114772177D01*
X159152000Y-114769306D01*
X159154126Y-114766325D01*
X159156058Y-114763244D01*
X159157786Y-114760070D01*
X159159301Y-114756813D01*
X159160594Y-114753480D01*
X159161654Y-114750080D01*
X159162471Y-114746621D01*
X159163037Y-114743111D01*
X159163342Y-114739560D01*
X159163375Y-114735975D01*
X159163128Y-114732365D01*
X159162589Y-114728738D01*
X159161751Y-114725103D01*
X159161347Y-114723727D01*
X159160130Y-114721580D01*
X159155235Y-114714943D01*
X159147012Y-114705134D01*
X159135411Y-114692097D01*
X159101866Y-114656109D01*
X159054187Y-114606525D01*
X158991960Y-114542890D01*
X158914773Y-114464749D01*
X158713862Y-114263134D01*
X158713862Y-114259607D01*
X158542983Y-114087581D01*
X158404837Y-113946632D01*
X158313639Y-113851968D01*
X158290089Y-113826746D01*
X158283607Y-113818797D01*
X158286188Y-113819325D01*
X158291197Y-113820871D01*
X158307963Y-113826787D01*
X158332829Y-113836092D01*
X158364721Y-113848332D01*
X158445283Y-113879794D01*
X158541055Y-113917539D01*
X158695017Y-113976773D01*
X158743770Y-113994467D01*
X158762573Y-114000677D01*
X158778224Y-114005260D01*
X158791148Y-114008314D01*
X158801768Y-114009937D01*
X158810507Y-114010227D01*
X158817789Y-114009282D01*
X158824038Y-114007201D01*
X158829678Y-114004082D01*
X158840823Y-113995121D01*
X158842755Y-113993428D01*
X158844584Y-113991655D01*
X158846309Y-113989808D01*
X158847931Y-113987889D01*
X158849450Y-113985904D01*
X158850866Y-113983855D01*
X158852178Y-113981747D01*
X158853387Y-113979583D01*
X158854492Y-113977367D01*
X158855495Y-113975104D01*
X158856393Y-113972797D01*
X158857189Y-113970450D01*
X158857881Y-113968066D01*
X158858470Y-113965651D01*
X158858956Y-113963207D01*
X158859338Y-113960738D01*
X158859617Y-113958249D01*
X158859793Y-113955743D01*
X158859865Y-113953224D01*
X158859834Y-113950696D01*
X158859700Y-113948163D01*
X158859462Y-113945628D01*
X158859121Y-113943097D01*
X158858677Y-113940571D01*
X158858129Y-113938056D01*
X158857478Y-113935555D01*
X158856724Y-113933072D01*
X158855866Y-113930612D01*
X158854906Y-113928177D01*
X158853841Y-113925771D01*
X158852674Y-113923400D01*
X158851403Y-113921065D01*
X158847208Y-113913151D01*
X158846090Y-113911407D01*
X158844747Y-113909667D01*
X158843079Y-113907887D01*
X158840988Y-113906023D01*
X158838376Y-113904029D01*
X158835143Y-113901862D01*
X158831191Y-113899476D01*
X158826420Y-113896828D01*
X158820733Y-113893872D01*
X158814029Y-113890564D01*
X158806211Y-113886860D01*
X158797180Y-113882715D01*
X158786837Y-113878084D01*
X158775083Y-113872923D01*
X158761818Y-113867188D01*
X158746946Y-113860833D01*
X158711979Y-113846087D01*
X158669393Y-113828330D01*
X158618396Y-113807205D01*
X158558199Y-113782355D01*
X158407041Y-113720056D01*
X158119947Y-113600156D01*
X157969732Y-113538442D01*
X157929630Y-113522793D01*
X157904158Y-113513757D01*
X157870985Y-113504941D01*
X157858489Y-113501883D01*
X157844907Y-113499320D01*
X157830396Y-113497254D01*
X157815109Y-113495684D01*
X157799203Y-113494609D01*
X157782832Y-113494031D01*
X157766151Y-113493948D01*
X157749315Y-113494361D01*
X157732479Y-113495270D01*
X157715798Y-113496675D01*
X157699426Y-113498576D01*
X157683520Y-113500973D01*
X157668234Y-113503866D01*
X157653722Y-113507255D01*
X157640141Y-113511140D01*
X157627644Y-113515520D01*
X157602654Y-113524748D01*
X157578612Y-113535206D01*
X157555536Y-113546843D01*
X157533443Y-113559608D01*
X157512354Y-113573450D01*
X157492284Y-113588318D01*
X157473253Y-113604162D01*
X157455278Y-113620929D01*
X157438378Y-113638569D01*
X157422570Y-113657031D01*
X157407873Y-113676265D01*
X157394305Y-113696218D01*
X157381884Y-113716840D01*
X157370627Y-113738080D01*
X157360554Y-113759887D01*
X157351682Y-113782210D01*
X157344029Y-113804998D01*
X157337613Y-113828200D01*
X157332452Y-113851765D01*
X157328565Y-113875641D01*
X157325970Y-113899779D01*
X157324684Y-113924126D01*
X157204474Y-113924126D01*
X157204663Y-113878747D01*
X157205187Y-113858746D01*
X157206206Y-113841719D01*
X157206953Y-113834012D01*
X157207887Y-113826677D01*
X157209027Y-113819589D01*
X157210394Y-113812626D01*
X157212009Y-113805663D01*
X157213893Y-113798575D01*
X157218550Y-113783532D01*
X157224860Y-113762552D01*
X157231880Y-113741936D01*
X157247989Y-113701859D01*
X157266764Y-113663413D01*
X157288091Y-113626714D01*
X157311857Y-113591875D01*
X157337947Y-113559009D01*
X157366248Y-113528229D01*
X157396647Y-113499651D01*
X157429030Y-113473386D01*
X157463282Y-113449550D01*
X157499291Y-113428255D01*
X157517919Y-113418596D01*
X157536943Y-113409615D01*
X157556350Y-113401327D01*
X157576124Y-113393745D01*
X157596252Y-113386883D01*
X157616720Y-113380756D01*
X157637514Y-113375378D01*
X157658619Y-113370764D01*
X157680021Y-113366927D01*
X157701705Y-113363881D01*
X157722218Y-113361567D01*
X157739507Y-113359914D01*
X157754647Y-113358922D01*
X157761747Y-113358674D01*
X157768712Y-113358592D01*
X157775678Y-113358674D01*
X157782778Y-113358922D01*
X157797917Y-113359914D01*
X157815206Y-113361567D01*
X157835719Y-113363881D01*
X157839885Y-113364002D01*
X157844412Y-113364350D01*
X157849249Y-113364904D01*
X157854344Y-113365645D01*
X157865104Y-113367601D01*
X157876276Y-113370053D01*
X157887448Y-113372835D01*
X157898207Y-113375783D01*
X157908140Y-113378731D01*
X157916833Y-113381514D01*
X158093057Y-113450445D01*
X158424675Y-113586490D01*
X158751003Y-113723197D01*
X158861969Y-113771031D01*
X158911357Y-113794112D01*
X158920364Y-113801009D01*
X158928859Y-113808459D01*
X158936828Y-113816436D01*
X158944254Y-113824913D01*
X158951122Y-113833867D01*
X158957417Y-113843269D01*
X158963123Y-113853095D01*
X158968225Y-113863319D01*
X158972706Y-113873915D01*
X158976552Y-113884857D01*
X158979747Y-113896119D01*
X158982276Y-113907676D01*
X158984123Y-113919501D01*
X158985272Y-113931569D01*
X158985709Y-113943854D01*
X158985417Y-113956330D01*
X158984581Y-113965183D01*
X158983400Y-113973884D01*
X158981879Y-113982426D01*
X158980024Y-113990803D01*
X158977841Y-113999006D01*
X158975336Y-114007029D01*
X158972514Y-114014865D01*
X158969382Y-114022507D01*
X158965945Y-114029947D01*
X158962209Y-114037178D01*
X158958180Y-114044194D01*
X158953863Y-114050987D01*
X158949265Y-114057550D01*
X158944391Y-114063876D01*
X158939247Y-114069959D01*
X158933839Y-114075789D01*
X158928173Y-114081362D01*
X158922255Y-114086669D01*
X158916089Y-114091704D01*
X158909683Y-114096459D01*
X158903042Y-114100928D01*
X158896171Y-114105102D01*
X158889077Y-114108976D01*
X158881766Y-114112542D01*
X158874242Y-114115793D01*
X158866513Y-114118721D01*
X158858584Y-114121320D01*
X158850460Y-114123583D01*
X158842147Y-114125502D01*
X158833652Y-114127071D01*
X158824980Y-114128281D01*
X158816137Y-114129127D01*
X158777343Y-114129127D01*
X158921937Y-114277240D01*
X159004263Y-114359230D01*
X159030424Y-114384604D01*
X159048898Y-114401548D01*
X159055794Y-114407323D01*
X159061420Y-114411549D01*
X159065992Y-114414411D01*
X159069727Y-114416095D01*
X159072842Y-114416787D01*
X159075554Y-114416673D01*
X159078081Y-114415940D01*
X159080638Y-114414772D01*
X159089655Y-114409066D01*
X159098223Y-114403835D01*
X159106388Y-114399058D01*
X159114196Y-114394716D01*
X159121695Y-114390786D01*
X159128930Y-114387249D01*
X159135948Y-114384084D01*
X159142796Y-114381271D01*
X159149519Y-114378788D01*
X159156165Y-114376615D01*
X159162780Y-114374731D01*
X159169411Y-114373116D01*
X159176104Y-114371749D01*
X159182905Y-114370609D01*
X159189861Y-114369675D01*
X159197018Y-114368928D01*
X159208537Y-114367863D01*
X159219404Y-114367351D01*
X159229797Y-114367448D01*
X159239889Y-114368212D01*
X159244878Y-114368861D01*
X159249858Y-114369699D01*
X159254851Y-114370731D01*
X159259879Y-114371966D01*
X159264963Y-114373409D01*
X159270126Y-114375069D01*
X159280777Y-114379067D01*
X159292006Y-114384015D01*
X159303990Y-114389970D01*
X159316903Y-114396989D01*
X159330922Y-114405130D01*
X159346222Y-114414448D01*
X159362979Y-114425001D01*
X159401566Y-114450037D01*
X159438196Y-114474647D01*
X159467140Y-114493512D01*
X159479220Y-114501062D01*
X159489967Y-114507501D01*
X159499578Y-114512938D01*
X159508248Y-114517481D01*
X159516174Y-114521239D01*
X159523553Y-114524321D01*
X159530581Y-114526834D01*
X159537453Y-114528887D01*
X159544367Y-114530589D01*
X159551519Y-114532049D01*
X159567320Y-114534673D01*
X159577161Y-114535746D01*
X159586868Y-114536319D01*
X159596472Y-114536385D01*
X159606003Y-114535940D01*
X159615493Y-114534978D01*
X159624973Y-114533495D01*
X159634473Y-114531485D01*
X159644025Y-114528942D01*
X159653660Y-114525863D01*
X159663408Y-114522240D01*
X159673301Y-114518071D01*
X159683370Y-114513349D01*
X159693645Y-114508068D01*
X159704158Y-114502225D01*
X159714939Y-114495813D01*
X159726021Y-114488829D01*
X159746740Y-114475825D01*
X159756273Y-114469736D01*
X159764814Y-114464143D01*
X159772033Y-114459212D01*
X159777598Y-114455107D01*
X159779658Y-114453416D01*
X159781180Y-114451993D01*
X159782124Y-114450860D01*
X159782366Y-114450409D01*
X159782447Y-114450037D01*
X159793468Y-114416095D01*
X159804765Y-114380114D01*
X159811136Y-114359251D01*
X159817714Y-114337190D01*
X159830168Y-114293550D01*
X159840638Y-114255199D01*
X159848463Y-114226106D01*
X159852981Y-114210237D01*
X159853694Y-114208594D01*
X159854507Y-114206974D01*
X159855418Y-114205379D01*
X159856425Y-114203810D01*
X159857525Y-114202270D01*
X159858716Y-114200760D01*
X159859994Y-114199282D01*
X159861357Y-114197839D01*
X159862803Y-114196431D01*
X159864329Y-114195062D01*
X159865933Y-114193733D01*
X159867612Y-114192446D01*
X159869362Y-114191202D01*
X159871183Y-114190005D01*
X159873071Y-114188855D01*
X159875023Y-114187755D01*
X159877037Y-114186707D01*
X159879111Y-114185712D01*
X159881242Y-114184773D01*
X159883427Y-114183891D01*
X159885663Y-114183069D01*
X159887949Y-114182308D01*
X159890281Y-114181610D01*
X159892656Y-114180978D01*
X159895074Y-114180413D01*
X159897530Y-114179916D01*
X159900022Y-114179491D01*
X159902548Y-114179139D01*
X159905104Y-114178862D01*
X159907690Y-114178661D01*
X159910301Y-114178539D01*
X159912935Y-114178498D01*
X159915279Y-114178590D01*
X159917676Y-114178861D01*
X159920119Y-114179303D01*
X159922599Y-114179910D01*
X159925107Y-114180675D01*
X159927635Y-114181590D01*
X159930174Y-114182648D01*
X159932717Y-114183843D01*
X159937779Y-114186613D01*
X159942753Y-114189842D01*
X159947572Y-114193475D01*
X159952169Y-114197453D01*
X159956477Y-114201721D01*
X159960428Y-114206221D01*
X159963956Y-114210897D01*
X159965539Y-114213283D01*
X159966992Y-114215692D01*
X159968306Y-114218116D01*
X159969471Y-114220548D01*
X159970480Y-114222982D01*
X159971325Y-114225410D01*
X159971996Y-114227825D01*
X159972486Y-114230220D01*
X159972787Y-114232588D01*
X159972888Y-114234922D01*
X159865898Y-114640467D01*
X159783329Y-114953442D01*
G37*
D10*
X108713714Y-43268863D02*
X108199679Y-44331201D01*
X104772784Y-43303132D02*
X103778985Y-43303132D01*
X117609147Y-43040249D02*
X117875814Y-42659296D01*
X118066290Y-43040249D02*
X118066290Y-42240249D01*
X118066290Y-42240249D02*
X117761528Y-42240249D01*
X117761528Y-42240249D02*
X117685338Y-42278344D01*
X117685338Y-42278344D02*
X117647243Y-42316439D01*
X117647243Y-42316439D02*
X117609147Y-42392630D01*
X117609147Y-42392630D02*
X117609147Y-42506915D01*
X117609147Y-42506915D02*
X117647243Y-42583106D01*
X117647243Y-42583106D02*
X117685338Y-42621201D01*
X117685338Y-42621201D02*
X117761528Y-42659296D01*
X117761528Y-42659296D02*
X118066290Y-42659296D01*
X117266290Y-42621201D02*
X116999624Y-42621201D01*
X116885338Y-43040249D02*
X117266290Y-43040249D01*
X117266290Y-43040249D02*
X117266290Y-42240249D01*
X117266290Y-42240249D02*
X116885338Y-42240249D01*
X116656766Y-42240249D02*
X116390099Y-43040249D01*
X116390099Y-43040249D02*
X116123433Y-42240249D01*
X115856766Y-43040249D02*
X115856766Y-42240249D01*
X115513910Y-43002154D02*
X115399624Y-43040249D01*
X115399624Y-43040249D02*
X115209148Y-43040249D01*
X115209148Y-43040249D02*
X115132957Y-43002154D01*
X115132957Y-43002154D02*
X115094862Y-42964058D01*
X115094862Y-42964058D02*
X115056767Y-42887868D01*
X115056767Y-42887868D02*
X115056767Y-42811677D01*
X115056767Y-42811677D02*
X115094862Y-42735487D01*
X115094862Y-42735487D02*
X115132957Y-42697392D01*
X115132957Y-42697392D02*
X115209148Y-42659296D01*
X115209148Y-42659296D02*
X115361529Y-42621201D01*
X115361529Y-42621201D02*
X115437719Y-42583106D01*
X115437719Y-42583106D02*
X115475814Y-42545011D01*
X115475814Y-42545011D02*
X115513910Y-42468820D01*
X115513910Y-42468820D02*
X115513910Y-42392630D01*
X115513910Y-42392630D02*
X115475814Y-42316439D01*
X115475814Y-42316439D02*
X115437719Y-42278344D01*
X115437719Y-42278344D02*
X115361529Y-42240249D01*
X115361529Y-42240249D02*
X115171052Y-42240249D01*
X115171052Y-42240249D02*
X115056767Y-42278344D01*
X114713909Y-43040249D02*
X114713909Y-42240249D01*
X114180576Y-42240249D02*
X114028195Y-42240249D01*
X114028195Y-42240249D02*
X113952005Y-42278344D01*
X113952005Y-42278344D02*
X113875814Y-42354534D01*
X113875814Y-42354534D02*
X113837719Y-42506915D01*
X113837719Y-42506915D02*
X113837719Y-42773582D01*
X113837719Y-42773582D02*
X113875814Y-42925963D01*
X113875814Y-42925963D02*
X113952005Y-43002154D01*
X113952005Y-43002154D02*
X114028195Y-43040249D01*
X114028195Y-43040249D02*
X114180576Y-43040249D01*
X114180576Y-43040249D02*
X114256767Y-43002154D01*
X114256767Y-43002154D02*
X114332957Y-42925963D01*
X114332957Y-42925963D02*
X114371053Y-42773582D01*
X114371053Y-42773582D02*
X114371053Y-42506915D01*
X114371053Y-42506915D02*
X114332957Y-42354534D01*
X114332957Y-42354534D02*
X114256767Y-42278344D01*
X114256767Y-42278344D02*
X114180576Y-42240249D01*
X113494862Y-43040249D02*
X113494862Y-42240249D01*
X113494862Y-42240249D02*
X113037719Y-43040249D01*
X113037719Y-43040249D02*
X113037719Y-42240249D01*
X111628196Y-43040249D02*
X112085339Y-43040249D01*
X111856767Y-43040249D02*
X111856767Y-42240249D01*
X111856767Y-42240249D02*
X111932958Y-42354534D01*
X111932958Y-42354534D02*
X112009148Y-42430725D01*
X112009148Y-42430725D02*
X112085339Y-42468820D01*
X111285338Y-42964058D02*
X111247243Y-43002154D01*
X111247243Y-43002154D02*
X111285338Y-43040249D01*
X111285338Y-43040249D02*
X111323434Y-43002154D01*
X111323434Y-43002154D02*
X111285338Y-42964058D01*
X111285338Y-42964058D02*
X111285338Y-43040249D01*
X110561529Y-42506915D02*
X110561529Y-43040249D01*
X110752005Y-42202154D02*
X110942482Y-42773582D01*
X110942482Y-42773582D02*
X110447243Y-42773582D01*
X120085339Y-43909156D02*
X119971053Y-43947251D01*
X119971053Y-43947251D02*
X119932958Y-43985347D01*
X119932958Y-43985347D02*
X119894862Y-44061537D01*
X119894862Y-44061537D02*
X119894862Y-44175823D01*
X119894862Y-44175823D02*
X119932958Y-44252013D01*
X119932958Y-44252013D02*
X119971053Y-44290109D01*
X119971053Y-44290109D02*
X120047243Y-44328204D01*
X120047243Y-44328204D02*
X120352005Y-44328204D01*
X120352005Y-44328204D02*
X120352005Y-43528204D01*
X120352005Y-43528204D02*
X120085339Y-43528204D01*
X120085339Y-43528204D02*
X120009148Y-43566299D01*
X120009148Y-43566299D02*
X119971053Y-43604394D01*
X119971053Y-43604394D02*
X119932958Y-43680585D01*
X119932958Y-43680585D02*
X119932958Y-43756775D01*
X119932958Y-43756775D02*
X119971053Y-43832966D01*
X119971053Y-43832966D02*
X120009148Y-43871061D01*
X120009148Y-43871061D02*
X120085339Y-43909156D01*
X120085339Y-43909156D02*
X120352005Y-43909156D01*
X119399624Y-43947251D02*
X119399624Y-44328204D01*
X119666291Y-43528204D02*
X119399624Y-43947251D01*
X119399624Y-43947251D02*
X119132958Y-43528204D01*
X118256767Y-43909156D02*
X117990101Y-43909156D01*
X117875815Y-44328204D02*
X118256767Y-44328204D01*
X118256767Y-44328204D02*
X118256767Y-43528204D01*
X118256767Y-43528204D02*
X117875815Y-43528204D01*
X117152005Y-44328204D02*
X117532957Y-44328204D01*
X117532957Y-44328204D02*
X117532957Y-43528204D01*
X116885338Y-43909156D02*
X116618672Y-43909156D01*
X116504386Y-44328204D02*
X116885338Y-44328204D01*
X116885338Y-44328204D02*
X116885338Y-43528204D01*
X116885338Y-43528204D02*
X116504386Y-43528204D01*
X115704385Y-44252013D02*
X115742481Y-44290109D01*
X115742481Y-44290109D02*
X115856766Y-44328204D01*
X115856766Y-44328204D02*
X115932957Y-44328204D01*
X115932957Y-44328204D02*
X116047243Y-44290109D01*
X116047243Y-44290109D02*
X116123433Y-44213918D01*
X116123433Y-44213918D02*
X116161528Y-44137728D01*
X116161528Y-44137728D02*
X116199624Y-43985347D01*
X116199624Y-43985347D02*
X116199624Y-43871061D01*
X116199624Y-43871061D02*
X116161528Y-43718680D01*
X116161528Y-43718680D02*
X116123433Y-43642489D01*
X116123433Y-43642489D02*
X116047243Y-43566299D01*
X116047243Y-43566299D02*
X115932957Y-43528204D01*
X115932957Y-43528204D02*
X115856766Y-43528204D01*
X115856766Y-43528204D02*
X115742481Y-43566299D01*
X115742481Y-43566299D02*
X115704385Y-43604394D01*
X115475814Y-43528204D02*
X115018671Y-43528204D01*
X115247243Y-44328204D02*
X115247243Y-43528204D01*
X114294861Y-44328204D02*
X114561528Y-43947251D01*
X114752004Y-44328204D02*
X114752004Y-43528204D01*
X114752004Y-43528204D02*
X114447242Y-43528204D01*
X114447242Y-43528204D02*
X114371052Y-43566299D01*
X114371052Y-43566299D02*
X114332957Y-43604394D01*
X114332957Y-43604394D02*
X114294861Y-43680585D01*
X114294861Y-43680585D02*
X114294861Y-43794870D01*
X114294861Y-43794870D02*
X114332957Y-43871061D01*
X114332957Y-43871061D02*
X114371052Y-43909156D01*
X114371052Y-43909156D02*
X114447242Y-43947251D01*
X114447242Y-43947251D02*
X114752004Y-43947251D01*
X113799623Y-43528204D02*
X113647242Y-43528204D01*
X113647242Y-43528204D02*
X113571052Y-43566299D01*
X113571052Y-43566299D02*
X113494861Y-43642489D01*
X113494861Y-43642489D02*
X113456766Y-43794870D01*
X113456766Y-43794870D02*
X113456766Y-44061537D01*
X113456766Y-44061537D02*
X113494861Y-44213918D01*
X113494861Y-44213918D02*
X113571052Y-44290109D01*
X113571052Y-44290109D02*
X113647242Y-44328204D01*
X113647242Y-44328204D02*
X113799623Y-44328204D01*
X113799623Y-44328204D02*
X113875814Y-44290109D01*
X113875814Y-44290109D02*
X113952004Y-44213918D01*
X113952004Y-44213918D02*
X113990100Y-44061537D01*
X113990100Y-44061537D02*
X113990100Y-43794870D01*
X113990100Y-43794870D02*
X113952004Y-43642489D01*
X113952004Y-43642489D02*
X113875814Y-43566299D01*
X113875814Y-43566299D02*
X113799623Y-43528204D01*
X113113909Y-44328204D02*
X113113909Y-43528204D01*
X113113909Y-43528204D02*
X112656766Y-44328204D01*
X112656766Y-44328204D02*
X112656766Y-43528204D01*
X111894862Y-44328204D02*
X112275814Y-44328204D01*
X112275814Y-44328204D02*
X112275814Y-43528204D01*
X111666291Y-44099632D02*
X111285338Y-44099632D01*
X111742481Y-44328204D02*
X111475814Y-43528204D01*
X111475814Y-43528204D02*
X111209148Y-44328204D01*
X110675815Y-43909156D02*
X110561529Y-43947251D01*
X110561529Y-43947251D02*
X110523434Y-43985347D01*
X110523434Y-43985347D02*
X110485338Y-44061537D01*
X110485338Y-44061537D02*
X110485338Y-44175823D01*
X110485338Y-44175823D02*
X110523434Y-44252013D01*
X110523434Y-44252013D02*
X110561529Y-44290109D01*
X110561529Y-44290109D02*
X110637719Y-44328204D01*
X110637719Y-44328204D02*
X110942481Y-44328204D01*
X110942481Y-44328204D02*
X110942481Y-43528204D01*
X110942481Y-43528204D02*
X110675815Y-43528204D01*
X110675815Y-43528204D02*
X110599624Y-43566299D01*
X110599624Y-43566299D02*
X110561529Y-43604394D01*
X110561529Y-43604394D02*
X110523434Y-43680585D01*
X110523434Y-43680585D02*
X110523434Y-43756775D01*
X110523434Y-43756775D02*
X110561529Y-43832966D01*
X110561529Y-43832966D02*
X110599624Y-43871061D01*
X110599624Y-43871061D02*
X110675815Y-43909156D01*
X110675815Y-43909156D02*
X110942481Y-43909156D01*
D12*
X81802898Y-156472102D03*
D13*
X82213019Y-156061981D03*
D14*
X80006846Y-151083949D03*
D15*
X85395000Y-152880000D03*
D14*
X86293025Y-148389871D03*
D13*
X88576981Y-149698019D03*
D12*
X88987102Y-149287898D03*
X137945000Y-128770000D03*
D13*
X138525000Y-128770000D03*
D14*
X140485000Y-123690000D03*
D15*
X143025000Y-128770000D03*
D14*
X146835000Y-126229999D03*
D13*
X147525000Y-128770000D03*
D12*
X148105000Y-128770000D03*
X175837375Y-69755637D03*
D13*
X176415962Y-69796096D03*
D14*
X178725550Y-64865193D03*
D15*
X180905000Y-70110000D03*
D14*
X184882901Y-67841955D03*
D13*
X185394038Y-70423904D03*
D12*
X185972625Y-70464363D03*
D16*
X181560000Y-122470000D03*
D12*
X117008097Y-132954801D03*
D13*
X117568334Y-132804686D03*
D14*
X118146748Y-127390497D03*
D15*
X121915000Y-131640000D03*
D14*
X124937777Y-128200447D03*
D13*
X126261666Y-130475314D03*
D12*
X126821903Y-130325199D03*
D16*
X83320000Y-55720000D03*
D12*
X154031399Y-78675260D03*
D13*
X154611399Y-78675260D03*
D14*
X156571399Y-73595260D03*
D15*
X159111399Y-78675260D03*
D14*
X162921399Y-76135259D03*
D13*
X163611399Y-78675260D03*
D12*
X164191399Y-78675260D03*
X213972177Y-100807867D03*
D13*
X214543365Y-100908583D03*
D14*
X217355721Y-96246110D03*
D15*
X218975000Y-101690000D03*
D14*
X223168184Y-99850187D03*
D13*
X223406635Y-102471417D03*
D12*
X223977823Y-102572133D03*
D17*
X153295000Y-116290000D03*
X166495000Y-116290000D03*
D18*
X193250000Y-74450000D03*
D12*
X173217375Y-107765637D03*
D13*
X173795962Y-107806096D03*
D14*
X176105550Y-102875193D03*
D15*
X178285000Y-108120000D03*
D14*
X182262901Y-105851955D03*
D13*
X182774038Y-108433904D03*
D12*
X183352625Y-108474363D03*
X115982031Y-90684740D03*
D13*
X116562031Y-90684740D03*
D14*
X118522031Y-85604740D03*
D15*
X121062031Y-90684740D03*
D14*
X124872031Y-88144739D03*
D13*
X125562031Y-90684740D03*
D12*
X126142031Y-90684740D03*
D19*
X88090000Y-111450000D03*
X88090000Y-116450000D03*
X88090000Y-113950000D03*
D20*
X95590000Y-108350000D03*
X95590000Y-119550000D03*
D19*
X102590000Y-116450000D03*
X102590000Y-111450000D03*
D21*
X100249110Y-98455000D03*
X97709110Y-98455000D03*
X95169110Y-98455000D03*
X92629110Y-98455000D03*
D22*
X82400000Y-129125000D03*
X89400000Y-129125000D03*
D23*
X91200000Y-131225000D03*
X87200000Y-131225000D03*
X92700000Y-127025000D03*
X84200000Y-131225000D03*
D12*
X210692177Y-119607867D03*
D13*
X211263365Y-119708583D03*
D14*
X214075721Y-115046110D03*
D15*
X215695000Y-120490000D03*
D14*
X219888184Y-118650187D03*
D13*
X220126635Y-121271417D03*
D12*
X220697823Y-121372133D03*
X115965000Y-109800000D03*
D13*
X116545000Y-109800000D03*
D14*
X118505000Y-104720000D03*
D15*
X121045000Y-109800000D03*
D14*
X124855000Y-107259999D03*
D13*
X125545000Y-109800000D03*
D12*
X126125000Y-109800000D03*
D16*
X83320000Y-135150000D03*
X188990000Y-56730000D03*
D12*
X116005000Y-71630000D03*
D13*
X116585000Y-71630000D03*
D14*
X118545000Y-66550000D03*
D15*
X121085000Y-71630000D03*
D14*
X124895000Y-69089999D03*
D13*
X125585000Y-71630000D03*
D12*
X126165000Y-71630000D03*
D24*
X82350000Y-104800000D03*
X82350000Y-102800000D03*
D12*
X174477375Y-88735637D03*
D13*
X175055962Y-88776096D03*
D14*
X177365550Y-83845193D03*
D15*
X179545000Y-89090000D03*
D14*
X183522901Y-86821955D03*
D13*
X184034038Y-89403904D03*
D12*
X184612625Y-89444363D03*
D25*
X82309995Y-118535008D03*
X82309995Y-122785008D03*
D26*
X83209995Y-119435008D03*
X83209995Y-121885008D03*
D27*
X83209995Y-120660008D03*
D28*
X81259995Y-118810008D03*
X81259995Y-122510008D03*
D16*
X174150000Y-55720000D03*
D12*
X154045000Y-59670000D03*
D13*
X154625000Y-59670000D03*
D14*
X156585000Y-54590000D03*
D15*
X159125000Y-59670000D03*
D14*
X162935000Y-57129999D03*
D13*
X163625000Y-59670000D03*
D12*
X164205000Y-59670000D03*
D29*
X149595000Y-79520000D03*
X168645000Y-98570000D03*
X130545000Y-98570000D03*
D12*
X97843437Y-142368264D03*
D13*
X98345732Y-142078264D03*
D14*
X97503141Y-136698855D03*
D15*
X102242846Y-139828264D03*
D14*
X104272402Y-135723559D03*
D13*
X106139960Y-137578264D03*
D12*
X106642255Y-137288264D03*
X191102177Y-121287867D03*
D13*
X191673365Y-121388583D03*
D14*
X194485721Y-116726110D03*
D15*
X196105000Y-122170000D03*
D14*
X200298184Y-120330187D03*
D13*
X200536635Y-122951417D03*
D12*
X201107823Y-123052133D03*
D16*
X169950000Y-121710000D03*
X167300000Y-88050000D03*
D12*
X134981399Y-106747857D03*
D13*
X135561399Y-106747857D03*
D14*
X137521399Y-101667857D03*
D15*
X140061399Y-106747857D03*
D14*
X143871399Y-104207856D03*
D13*
X144561399Y-106747857D03*
D12*
X145141399Y-106747857D03*
X134995000Y-87730000D03*
D13*
X135575000Y-87730000D03*
D14*
X137535000Y-82650000D03*
D15*
X140075000Y-87730000D03*
D14*
X143885000Y-85189999D03*
D13*
X144575000Y-87730000D03*
D12*
X145155000Y-87730000D03*
D30*
X82595000Y-111399951D03*
D19*
X82595000Y-115000000D03*
D12*
X197712177Y-83727867D03*
D13*
X198283365Y-83828583D03*
D14*
X201095721Y-79166110D03*
D15*
X202715000Y-84610000D03*
D14*
X206908184Y-82770187D03*
D13*
X207146635Y-85391417D03*
D12*
X207717823Y-85492133D03*
D25*
X82251228Y-65426228D03*
X82301228Y-62426228D03*
D31*
X84101228Y-66176228D03*
X84101228Y-63176228D03*
X84101228Y-61676228D03*
D32*
X82201228Y-60076228D03*
X82201228Y-68026228D03*
D16*
X145400000Y-55720000D03*
D33*
X137950000Y-120100000D03*
D34*
X140490000Y-120100000D03*
X143030000Y-120100000D03*
X145570000Y-120100000D03*
X148110000Y-120100000D03*
D12*
X154031399Y-97747857D03*
D13*
X154611399Y-97747857D03*
D14*
X156571399Y-92667857D03*
D15*
X159111399Y-97747857D03*
D14*
X162921399Y-95207856D03*
D13*
X163611399Y-97747857D03*
D12*
X164191399Y-97747857D03*
X194389242Y-102425421D03*
D13*
X194960430Y-102526137D03*
D14*
X197772786Y-97863664D03*
D15*
X199392065Y-103307554D03*
D14*
X203585249Y-101467741D03*
D13*
X203823700Y-104088971D03*
D12*
X204394888Y-104189687D03*
D35*
X105318815Y-58035745D03*
X105318815Y-60575745D03*
X105318815Y-63115745D03*
X105318815Y-65655745D03*
X105318815Y-68195745D03*
X105318815Y-70735745D03*
X105318815Y-73275745D03*
X105318815Y-75815745D03*
X105318815Y-78355745D03*
X105318815Y-80895745D03*
X105318815Y-83435745D03*
X105318815Y-85975745D03*
X90078815Y-85975745D03*
X90078815Y-83435745D03*
X90078815Y-80895745D03*
X90078815Y-78355745D03*
X90078815Y-75815745D03*
X90078815Y-73275745D03*
X90078815Y-70735745D03*
X90078815Y-68195745D03*
X90078815Y-65655745D03*
X90078815Y-63115745D03*
X90078815Y-60575745D03*
X90078815Y-58035745D03*
D12*
X135005000Y-68650000D03*
D13*
X135585000Y-68650000D03*
D14*
X137545000Y-63570000D03*
D15*
X140085000Y-68650000D03*
D14*
X143895000Y-66109999D03*
D13*
X144585000Y-68650000D03*
D12*
X145165000Y-68650000D03*
D13*
X194920000Y-55050000D03*
D36*
X197460000Y-55050000D03*
X200000000Y-55050000D03*
X202540000Y-55050000D03*
X205080000Y-55050000D03*
M02*
