M48
; DRILL file {KiCad 9.0.1} date 2025-04-19T02:12:47+0300
; FORMAT={-:-/ absolute / metric / decimal}
; #@! TF.CreationDate,2025-04-19T02:12:47+03:00
; #@! TF.GenerationSoftware,Kicad,Pcbnew,9.0.1
; #@! TF.FileFunction,Plated,1,2,PTH
FMAT,2
METRIC
; #@! TA.AperFunction,Plated,PTH,ComponentDrill
T1C0.000
; #@! TA.AperFunction,Plated,PTH,ComponentDrill
T2C0.500
; #@! TA.AperFunction,Plated,PTH,ComponentDrill
T3C0.750
; #@! TA.AperFunction,Plated,PTH,ViaDrill
T4C0.800
; #@! TA.AperFunction,Plated,PTH,ComponentDrill
T5C0.813
; #@! TA.AperFunction,Plated,PTH,ComponentDrill
T6C0.850
; #@! TA.AperFunction,Plated,PTH,ComponentDrill
T7C1.000
; #@! TA.AperFunction,Plated,PTH,ComponentDrill
T8C1.500
; #@! TA.AperFunction,Plated,PTH,ComponentDrill
T9C2.200
%
G90
G05
T1
X81.26Y-118.81
X81.26Y-122.51
X83.21Y-119.435
X83.21Y-120.66
X83.21Y-121.885
T2
X153.295Y-116.29
X166.495Y-116.29
T3
X82.35Y-102.8
X82.35Y-104.8
T4
X82.473Y-108.12
X84.205Y-124.96
X84.235Y-113.36
X85.123Y-115.55
X85.511Y-119.296
X85.665Y-98.787
X85.896Y-112.35
X86.055Y-61.71
X86.061Y-58.036
X87.2Y-121.88
X87.265Y-108.38
X88.165Y-92.09
X88.965Y-120.65
X89.045Y-133.26
X90.345Y-116.45
X90.405Y-113.92
X90.425Y-97.73
X90.995Y-102.51
X91.365Y-143.29
X91.616Y-110.185
X93.055Y-106.08
X93.256Y-110.512
X93.265Y-151.17
X94.435Y-153.92
X95.187Y-61.452
X95.265Y-104.98
X95.785Y-64.92
X96.465Y-63.194
X99.035Y-146.82
X100.415Y-64.94
X100.555Y-68.16
X100.555Y-70.74
X100.595Y-73.29
X100.595Y-114.57
X102.335Y-101.45
X102.648Y-148.968
X103.265Y-83.436
X104.225Y-89.68
X104.415Y-100.98
X105.377Y-147.294
X105.815Y-91.19
X107.435Y-105.24
X107.815Y-65.68
X108.0Y-78.355
X108.409Y-80.896
X109.645Y-73.35
X109.855Y-142.658
X110.155Y-132.53
X110.285Y-68.204
X111.993Y-106.24
X112.0Y-100.571
X112.255Y-94.0
X113.485Y-77.433
X113.505Y-114.12
X113.505Y-117.702
X114.165Y-96.99
X115.075Y-75.833
X115.877Y-82.82
X115.895Y-102.1
X116.165Y-137.97
X116.855Y-98.75
X119.932Y-140.622
X122.985Y-139.55
X125.345Y-94.98
X125.805Y-99.81
X125.915Y-103.01
X126.105Y-82.95
X126.195Y-77.44
X126.255Y-75.48
X126.425Y-114.11
X127.075Y-124.56
X128.085Y-85.57
X128.815Y-136.35
X128.855Y-124.32
X129.715Y-77.46
X129.955Y-82.95
X130.235Y-116.07
X130.795Y-102.3
X131.285Y-75.48
X131.553Y-139.386
X132.805Y-92.9
X133.135Y-119.63
X133.215Y-90.57
X133.335Y-136.23
X134.798Y-132.075
X134.815Y-123.35
X134.945Y-114.27
X135.085Y-74.62
X135.357Y-76.611
X135.415Y-95.59
X135.775Y-59.27
X136.325Y-134.18
X138.072Y-117.682
X138.721Y-136.93
X139.065Y-114.47
X139.895Y-56.57
X140.795Y-78.211
X141.927Y-136.763
X142.395Y-80.19
X144.705Y-98.88
X145.165Y-91.83
X145.355Y-93.84
X145.605Y-116.19
X146.655Y-61.37
X147.075Y-101.29
X148.165Y-116.13
X148.175Y-88.28
X148.175Y-97.2
X148.685Y-69.38
X148.685Y-72.541
X148.845Y-100.03
X149.045Y-134.84
X149.865Y-123.36
X150.129Y-119.886
X151.055Y-133.08
X152.665Y-83.06
X153.215Y-64.13
X153.325Y-118.75
X154.095Y-120.34
X154.495Y-84.88
X157.515Y-121.45
X158.915Y-90.61
X159.905Y-105.902
X160.865Y-86.51
X162.624Y-68.96
X164.225Y-64.8
X164.335Y-84.11
X164.515Y-71.335
X164.517Y-68.9
X164.87Y-123.024
X165.435Y-101.96
X167.715Y-71.29
X167.717Y-68.9
X169.73Y-93.975
X170.355Y-84.12
X173.465Y-92.37
X174.861Y-117.14
X175.335Y-75.68
X176.555Y-78.53
X176.885Y-100.28
X180.47Y-99.945
X184.025Y-100.91
X184.335Y-93.76
X184.925Y-113.13
X185.315Y-81.78
X185.638Y-103.28
X185.985Y-74.8
X187.615Y-121.95
X188.145Y-101.41
X189.124Y-82.72
X189.645Y-111.47
X190.895Y-87.48
X193.085Y-106.59
X194.765Y-57.27
X196.345Y-87.85
X197.565Y-89.95
X200.0Y-58.92
X200.795Y-96.31
X202.025Y-127.59
X202.235Y-117.54
X203.475Y-110.27
X203.535Y-108.48
X204.387Y-115.5
X205.575Y-118.06
X205.765Y-121.5
X206.455Y-91.99
X206.893Y-110.492
X207.275Y-89.41
X207.825Y-114.24
X208.855Y-106.83
X209.065Y-125.17
X209.855Y-99.74
X209.915Y-93.62
X220.795Y-125.86
X222.825Y-94.42
X223.145Y-106.81
X224.018Y-113.54
T5
X90.079Y-58.036
X90.079Y-60.576
X90.079Y-63.116
X90.079Y-65.656
X90.079Y-68.196
X90.079Y-70.736
X90.079Y-73.276
X90.079Y-75.816
X90.079Y-78.356
X90.079Y-80.896
X90.079Y-83.436
X90.079Y-85.976
X105.319Y-58.036
X105.319Y-60.576
X105.319Y-63.116
X105.319Y-65.656
X105.319Y-68.196
X105.319Y-70.736
X105.319Y-73.276
X105.319Y-75.816
X105.319Y-78.356
X105.319Y-80.896
X105.319Y-83.436
X105.319Y-85.976
T6
X137.95Y-120.1
X140.49Y-120.1
X143.03Y-120.1
X145.57Y-120.1
X148.11Y-120.1
T7
X82.595Y-111.4
X82.595Y-115.0
X88.09Y-111.45
X88.09Y-113.95
X88.09Y-116.45
X92.629Y-98.455
X95.169Y-98.455
X97.709Y-98.455
X100.249Y-98.455
X102.59Y-111.45
X102.59Y-116.45
X194.92Y-55.05
X197.46Y-55.05
X200.0Y-55.05
X202.54Y-55.05
X205.08Y-55.05
T9
X130.545Y-98.57
X149.595Y-79.52
X168.645Y-98.57
T7
G00X83.95Y-131.225
M15
G01X84.45Y-131.225
M16
G05
G00X86.95Y-131.225
M15
G01X87.45Y-131.225
M16
G05
G00X90.95Y-131.225
M15
G01X91.45Y-131.225
M16
G05
G00X92.45Y-127.025
M15
G01X92.95Y-127.025
M16
G05
T8
G00X94.94Y-108.35
M15
G01X96.24Y-108.35
M16
G05
G00X94.94Y-119.55
M15
G01X96.24Y-119.55
M16
G05
M30
